<mxfile host="65bd71144e">
    <diagram name="Page-1" id="fDxjnJhnE5thtefLtsN8">
        <mxGraphModel dx="3534" dy="1297" grid="1" gridSize="10" guides="1" tooltips="1" connect="1" arrows="1" fold="1" page="1" pageScale="1" pageWidth="850" pageHeight="1100" math="0" shadow="0">
            <root>
                <mxCell id="0"/>
                <mxCell id="1" parent="0"/>
                <mxCell id="tuaRVUBW0FNEikcSwHjQ-9" value="" style="group" parent="1" vertex="1" connectable="0">
                    <mxGeometry x="-910" y="140" width="240" height="128" as="geometry"/>
                </mxCell>
                <mxCell id="tuaRVUBW0FNEikcSwHjQ-5" value="" style="group" parent="tuaRVUBW0FNEikcSwHjQ-9" vertex="1" connectable="0">
                    <mxGeometry x="110" width="130" height="110" as="geometry"/>
                </mxCell>
                <mxCell id="tuaRVUBW0FNEikcSwHjQ-2" value="" style="shape=image;verticalLabelPosition=bottom;labelBackgroundColor=default;verticalAlign=top;aspect=fixed;imageAspect=0;image=data:image/png,iVBORw0KGgoAAAANSUhEUgAAAgAAAAIACAYAAAD0eNT6AAAAAXNSR0IArs4c6QAAIABJREFUeAHsXQd8U9X3x/H/OSl7KlP23m1eChRklV32EmWDgCCCIIioiOwyZMqQLYgyBEG27FWal0IBGQLiAEF2ad4r9Pw/JxAMaXLfS/pe8sbJ5wNJM96799wzvvfcMzJkoAdRgCigaQpUjoP/s8Yn5eVsYgWOd9Sz8kIbi03syfHCUCsvjLXwjtmcTVjB2YT1Vru4jbMLByw2IY7jhbMcL1zgeOGGxz+R4wXw+IfvPfU9Cy/8htdwXssuHHBe2yasf3QvxyyLTfiSswkf4lgsNqG11eaoGxkvlsexRu2C5zVNVBocUYAoQBQgChAFQkmB6vGQw8KLFa12R1Mr7+jH8cI4jheWWXhxl4UXEjne8Y+HofY03Br+2zn2EzgXjheW4txwjpF2RxMEM1FxkD2UtKd7EwWIAkQBogBRQDUKtP4OnqthTy6Eu2MrL/bmeHESxwtrOV44zvHCff0a9zQehECBCNIgAWlitQkTLbzYKyLeUSfCllwwA8Czqi0MXZgoQBQgChAFiAJKUQBd32i8LHbHAI53zLXyjn0WXrhHRj5gsCCgF8RqF77jbMKnzmMGXiiNoEqpNaPrEAWIAkQBogBRQDYFnGfyvFDaYhc7c7w4DQ09xwtJZOgDNvT+eg/ER8cjwhIEW1Y+JbJyHLwsewHpi0QBogBRgChAFJCiAO42LQlCWatd7G7hHfMfu6tTyNgHzdjLBQcpVptg52yOeVa72I2zC2XoCEGKu+lzogBRgChAFHhCgfBDEGa1ORpyNmEMx4s7OV64Q8Zec8ZeLii4zfHids4ufGFNcERbT0PGJwtNL4gCRAGiAFHA3BRAo4Dn9o8j1NGV7y1FTq7Boe+lTS/UEk0ePM6smIvxBJSFYG7Zp9kTBYgCJqOA5QC8hBH5FrswgeMFG8cLqbTD1+0OP73g4iHHC/EcL4xHEBh1AV40mTjQdIkCRAGigLEpgMVpsGCNs5ANLySTwTetwZcCDJiSuMVidwzGuA9jSwXNjihAFCAKGJACuJN75NYXp3F24RIZfDL4AfLARUznxMJF5B0woKKgKREFiALGoEC1w5DNwotdObuwjnLvyeAHaPB9egiQp6y8sIazie9YEiGrMaSGZkEUIAoQBXRKAQziepSLL2yg4D0y+kobfcb1HjiLPNkdA6rHJeXRqfjQsIkCRAGigL4oEH78Xi6Od/TneMdejhcwiMvnro0+I9oEgQcecDbHbovN0Rf7OuhLmmi0RAGiAFFA4xTAyH1M2+J42ukHwaARoAocVD7yDNjEnlRzQONKhYZHFCAKaJcC2E7WwjsaW3hhFTXNoZ28DoEPlob+lrM5GlHvAu3qGRoZUYAooCEKWO2O4tj4haL3yejr0Oj78p78hT0jwo8L5TQkajQUogBRgCgQegqgu5SziT04u3DAQErflzGg9wN3seuedhg8iL0KohLh1dBLHo2AKEAUIAqEiAKWBKEEluDleOEGGX7a8ZuMB+44awzEi+VDJH50W6IAUYAoEFwKlEqE/zn7utvFbSZT+LrfvdJ6qQPSLDYhzmITe2Kwa3Clke5GFCAKEAWCQAFrfFJe7MrG8Y5/yJCoY0iIrnqnq3iV44XRVFsgCAqJbkEUIAqoT4EIu1gJXZ0c1eAnD4CJz/79BGeC1S58x8WnWNSXULoDUYAoQBRQkgIAz3J2oRXHC/v9VHxkJMlIEg88xQOOvVZeaJEB4FklRZSuRRQgChAFFKWA83zfLnbmeOEUGX69u6Np/Brj4fMWu2MANSVSVGXRxYgCRIH0UgDT+FA5cbzwh8aUJu0mn9pNklHXP3+KV7BORpQNMqdXbun3RAGiAFEgYApgVzQMWuJ44Zb+FSsZR1pDXfHATQsvfBaZAFkCFmD6IVGAKEAU8JcC2HrXWa2PF26S0dCV0SCPiPE8Inexlga1KPZXi9H3iQJEAb8ogO13Hxt+2vEbz5AQOND3mt59VG74Xi6/hJq+TBQgChAFWBTAsqUcLwwlVz/t9snjo3kecHoEKsdBJpZM02dEAaIAUYBJgUdV+8SeHC9eIcWvecVPO3h97+CVXT+bcB1BO2UNMFUcfUgUIAp4UgBb8Tqb8/DCZTL8ZPiJB3TMA3bhkoUXu1JLYk8tR38TBYgCaSgQEe+ow/FCAil9HSt92gkru5s2Bj1PWRMc0WkEnt4gChAFiALV44VSnF34iQw/GX7iAUPzwAbuuOMN0nhEAaIAUSCDhb//GscL33C88JAUv6EVP+2KjbGTV2IdHRwvjA8/BGGkAokCRAETUqByHPzf4+p9d8jwk+EnHjAhD9iE66gDKD7AhAaApmxeCljsyW9aeCGRlL4JlT7tgpXYQRvtGvFcQkoN82pEmjlRwAQUwLM/Z5tRMgJGU+A0H+JpJXhgQw17ciETqEKaIlHAPBRAd7/VLgzneCGZdv206yceIB5g8MB9ziZ8iKnA5tGQNFOigEEpwNnEChabEMcQeCV2DnQN2oESDxiIB6w2wc7ZxKoGVYs0LaKAsSlgOQAvYZMQjhcekPGnHR/xAPFAADyQgv0FytnhFWNrS5odUcBAFMCAHo4Xfg1A4GkXZ6BdHK0/GX2FeOA8FggzkIqkqRAFjEeBKBtk5njHXI4XUhUSfAIEBAiIB4gHnDyAAcTYCtx4mpNmRBTQOQUi7Y4mHC/8QYafdn3EA8QD6vGAeMViFzvrXF3S8IkCxqDA40p+G9QTeFKmRFviAeIBDx6wC+uqxyXlMYYWpVkQBXRIAQsvxHCP2n6Sm5bctMQDxAPB5oGbnF1op0PVSUMmCuiXAo8i/MVptCvx2JWQAQi2AaD7Ec8hDyyJSoRX9atRaeREAZ1QwBovVqEIfzL8BP6IB7TEAxZe+I2LT7HoRI3SMIkCOqMAwDOPm/cIWhJ8GgsZIuIB4oHHPJDC2YRPqbmQzmwLDVfbFLDGJefn7I5fSNGSotUED9gcUGnrX1Bq2Qko8tUBKDRxF+QfvQUKTdgJRWcdgpKLeKiw4SJEHLlHRwRmPCKwCweop4C2bQqNTicU4OxCK44X/tWE4jejMqM5O414RFwSlFp6HF4bvh7C2s6AV5vHSv+LmQJZuy6A/J9vgTLfnoKIw3cJEJiHn25ZbUJHnahZGiZRQFsUCD8EYRhcQ4afdv2h5IFqB25BoQm7IFP7WdIGXwIUZGwxFXK/vwqKzjwElX7+i8CAOcDANxQgqC3bQqPROAWsdkdxCy8khlLx073NDTws8clO935Ym6/Sbfh9eQuydJ4L+Uf/DKVXnISIw3cIEBgXEPxq5YXSGle7NDyiQOgpYLU7mnK8cIsMsLkNcCjXv/L2K5C912LVDL83QIDegVwDV0LRGQeh4s9/Amej9Q8lD6hw7zt4nBl6DUsjIApokAIYOfu4ex/V8TfuTkjzu1zcjWdUcdfvzfh7ey9LpzmQ77PNUHpFIoQfIu+ACgY5FLyYit0Fo3bB8xpUwTQkokBoKBAVB9k5XtxqECEPhWKheyoAmorNjYNXY6YEdefvzfh7vuf0Dry3EopMPwAVN/9B3gEF1jqkusbu+CX8+L1codG2dFeigIYoEGEXK3G8cCGkAql3hULjTzcAKj4Pjb+MyH6JQD9P463G35nRO/DpZmcaYvjB2+meO8leSI5bLkfaxXANqWIaClEguBTArlocL9wnBRQSBUSG4zFwKrPq14B2/qWbjYFeTQbD6MZ9YXajnjCpcR/4oPFAaN90GNRu+gnkaD5JdW9CxpgpkLP/t1Bk+n6osOkycDYHrat+ALGDs4k9gqt16W5EgRBTIPosvMDZHV+T4SfDH2oeqLLzH/l5/c1jIVezCTC88XtwNroFQIMGzH/3GzSErY06wZDGA6F809GqgwH0NmTuOBvyjfoJSi09AeEHyDsQav6Sef8l2N8kxGqZbk8UUJ8C1vikvBwvHJEpGLSb0c9uRndrhal+OfutkGWYMzafDP2bDIIb0U2YRp8FCn6LjoG5jXtCyyYfQc7mE2XdNz1HCE7vQL8V8Ma0fVDxp9/JO6BhWbLwwqGqifdyq6+B6Q5EgRBRgLMLZTi7cImMP+38tcADzqA/GWf6rzefAD83eitgw+8NFCRHN4TtDTvC0CYDoWKzIHkHOsyGfCM3QsmlxwELHGlhDWgMT+mCPzibWCFE6pluSxRQjwIR8Y46lN//lLCTAg7hjgzd45nazZTchRdsNg7s0a0VNf7eAMHF6BiY16g7tG4aHO8AZjvk6Lsc3piyFypsvAQWih3QijzesSY4otXTxHRlokCQKcDxYheOF0RC+wQAtMIDhWP3SBp/PO9PbNhKdePvCQgcDRrCzoYd4aPGA6BykLwDWOr49ZEboOTiBKi2n7wDIebTFAsv9gqymqbbEQUUpgDAM9geM8TCpBVkT+MI4Y7fnQexS5+c3f+KRl2Dbvw9wQD+fSm6Ocxv3APaNhnmDEJMT1yArN9iZsG7ywBBEnY1JO9AqIC7OC0DwDMKa2W6HFFAfQo4I/15YZm74qXXoVIkdF933iv5DS+5++/UdKgmjL8nIBAaRMMvDTvAiCbvQbWmn0nOQ5bBl4iDcHoHPt7gbHNcbd9NArJBBLJWu/Bd1AV4UX2NTXcgCihEAUsiZOXsjl/clS69JiOsFR7Ajnwsw5i5+WQ4E91SkwDAExBcjm4O3zTq5qw9kDsImQVYLClHn6VQOHY3lP/xAmAmhVbW1cDj2I/VUhVSz3QZooB6FIhMcBTmeOGUgYWRFF4Qd0BK8xFWzsPSuiwA0KPJYF0Yf08wIEY3hN0NO8DHjftDRLMgeQfazYTXhv8I6FWpuvcGyYZ6snE23OYoqp7mpisTBdJJAQsvVuN4xz9KK226HnkPlOKBMitPM40/AgMs3uNpXPX49z/RTWFNo7cBAc1rzSdIzpsFiuR+lrXLfCg4djuUW3MeLMfuEyBQFBCIVyITxMrpVNP0c6KA8hSItCVHcbxwWylFTdcho68GD0hF/6OhxHN2PRp81pgfNIiG+IZtYEzjvlC96aeAhY3kGvVAv4ddFfN8uAZKLIiHKrv/JTCgDBi4a+WTaymvwemKRIEAKRBpdzTheCFZDYVN1yQgoCQP5B26hmn4mjYZYTjj7w0Y/BXdDJY06gZvNRkaNO9A9t6LodDEXVBu7W8UO5A+MJDE8Y56Aapr+hlRQDkKcLzQieOFFCWVNF2LjL5aPJCj9xImABjY6D1TAAB3UODyDsQ26g11mn4CYRJZAYF6BNx/F9Z6OuQe9B0Um3MUquy+Tt4B/wGBYOGFGOU0OV2JKOAnBay8432OF1LVUtZ0XQICSvMAttJ1N0SeryfWaQ+p9euZDgS4A4Ir0U1hWaOu8HbToZCv2XgmvTzpF+jf2XsugkITdz7yDlDsgFxAJFp5oa2fapu+ThRIPwWsNscQpZUzXY8Mvto8IFUAaG5UDNywVjU1AHAHA+gdONSwHXzeuB/UaPZpcLwDbb6CvEPXQvH5x8g7IO0ZeGC1i93Sr9HpCkQBmRTgeGGo2oqark9gQA0eCGs7g7mj/apWS7gSXg5u1YggEOCl3fH1Bk2cmQXYGbFIs7FMWgbqDfD8HWYW5B+9Bcqs+hUi4pLk7o7N9L1Ui80xUKb6pq8RBQKnAJX2JcOshmEO1jWljgAm1GrrBAAIAm5GVoPU+vUJCHgBAugleNiggTOzAGMHmjQdAVhAydN4K/13WKtHsQNFZxyEytuvmMnIS8/VLowKXLPTL4kCEhTgeGF0sBQ13YeAhho8IBUEOKTOO08AAIKAa1wlEOrUIhDgAwS4Hxdci24KKxt1gW5NhgB2UVTa+Hu7XrbuC6HguB1Q9odz5B14dFwwTkKN08dEAf8pwNmEMWooZLomGfpg8oBUGmDd6CFPAQAEAc4jgerhINZ9k4CADCDg8g7ENWwLYxu/C7WajoJMwfAOtJ4OeYb8AMXnHYMqO/+R3jFLn6/r8hpWXvjcfw1PvyAK+KAA7fzJSAfTSKt5r8KT2W2AczUbD3+Gl/cKAhAI/GutAveirJBCYMAvMPTv46qEGDtQrHlwYwdKr0iEiMN3dWnMA5UFCy8M86HO6W2igHwKWHnhk0CZkH5HwEFrPFB6xUlJ1/SaGvV9AgCXRwCf/7FUcAYLJteuCQ/r1fXLILq7zs32GmMHjkW3gfGN34U3m34SHO9Aq+mQd9haKLU80URHBY5B8jU9fZMo4EEBjnd8oDUFTuMhUJEeHnA2A4qZwgQBzRsMlAUA3MEAvsZ4gds1LICAgIIHG8gGRPeiG8Omhm8BegeKN/uSuTbe4gD8fS9zh9nwxtS9gLyQHl7SwW9TOZvYw0Ot059EAWkKYFqJDhjc6AJM81PhnDZn/2+ZRgbPq49arQGBABcouBpeHm5EVnUeFzhjByibQBYgSG0QDbaGbWBi43ehbtNPVM0sQCCAXQw5m6FB9QMqFiRt7+gbbhTgePEtqvBnaKVgamCBQWJSu8aG0R/A34xYAJehl/v8T0QFuFU9HO7XqgEP6LhAFhjAo5FbDRo76w70afKBanUHcr+/Cqrtu2lkmRCxX4ubiqeXRAHvFOBsQjOq7R9a4195x1Wni/L1ET86y6NW2HDRyMop6HND1y/mk0uBgKm1WqfLC8ACB08dF9Qzd+lhuTEQ6B2wR7eGyY37QP1mIxX1DmB9CIPLmWBNcER71/r0LlEgQ4YMnD25NnX1C63xL7P6bFrjFBMLRWcdDrqhNPIRUIEx2yQBQM5m42Fj9TqqgQB3gPAouyASxDq1Ze+O5RpOo37vdnRjWNfobeirUGYBNigqs/qMkeUsiUtIqUHGjiiQhgIWXqzG8cJdIyt9rc/Ncuw++KpUl7HFVKi8/aqRlVNQ54b96TO2nCYJAnI0mwDrq9cLCghwAQJn/IDVLX5AZu69UQ293Hkdj24NUxr3gYZNP4YszSZJrq03DxDyBBYV0rquSMf4bkUmiJXTGAB6w7wUqGFPLsTx4tV0MJWRBSZoc6u45U+m0so/alPQxmIGXsDe9N6MgOd7CAJcPQJcRjqYz850w+rhzuyChybvVCgXDNxt0Ah+bNgZ+jX5wO/MAuwXUXHzHwaWNcc1yzFHEfNaPJr5EwpYEiErxwunzaDwtT7Hst+fYxok9AJU2XXNwIopuMcvEUfuQda3v2bS3B0M1G84GHZE1gqqN8Ab0PiXqwx3a1qdJYop3VA63RBjB7Aq4btNPoBszeV5BrABUfihO0aWtVORCZDliSGgF+ajQKlE+B/Hizu0bhjNMr6q+27CqxI56gW+2GpkpRT0uZVf/xtklKC5OwjA11ENh8LkWm3AxllCDgbwuOBmZFVIqlUdUurWofgBieOSC9Ex0LLJR7JA3+sfbwg6PwZV19kcu6PPwgvms3w04wwZAJ7heGFJUBlOhZxuo43/teE/MpVTWKtpUHXvDWMrpiDzSZGv9jNp7gkA3P+u1GgkvF+3K6ytUR8uR1QIOSD4x1IRblePoOMCBhBAj8CMRj1lVSDEoFyj6RiP+XyLtoBMoskoQM19gutu9hA6n0rFGQcQE8s0SIUm7PT5e1/3wT7qeK5ZZtVpKDbnKBSO3Q2FJuxy9lkv+OU2KDTpF0BDiNkGJRfZnSlRBs+N/o+GNgHyfbaZSXN3o+/rNWYNYBXB2Nqt4ZgGvAN4fHDdiscFHB0XeAEEaxq9LQkCsnZdAJb45P94Jcjg1Jc8K/q+TfjUZObP3NO18GJXRRnIiEIRwjlhRzNfRgbfz9jmK6h24BZTKVXbfwtKLkmAfJ9uhuy9FgPGD7Cu6euzsDZfQc5+KwAD5squPmPYpiqo5LHugi86BPJ++cafwIC63eGH6g3g9/CKIfcOXI0oDzec2QWRkFKHOhtiQOHsRj0l19xZLTCE+iAIujrVahPfNrdVNMnsI23JURwvCEFgKqaBovv79kBU2Pi7pFIqPGVPGvpiahvu4HO+uwxelfAiBGLQ8Dd4Xp5n8GootfSE4ZqqWGwOwBiLQGnD+h1mEjSNfh8m12oNcRwXcjCA3oEn1Qlr1zBtMyM8DmjaZARzzdELYPBywahLxIh4Rx2TmEFzTrN6vFCK44WbZHx9G1+t0AbLk7IMSljbmc4oZTRaZVaehtyDvpMMIGRdL5DPMrWbCQXHbYdq+9jeCK3QVO44SiyIT1uMqTn7WMZf+pVtPAr61+0Oq2s0gEsRofcOOI8LuEpwp4YFHG/WgtQG9U0TUHg5ujnkaT6BKW/l1v6WBnDL5Scdfe+2JUEoa07raPBZV49LysPZhUs6YkYzCJzPOZZbc56pkNDg5B26xq80Nn+NlNzv4zFB4cl7IOKwcdKmKm35y3n0IZcG6fkeegcaRw+CSbXbwhEufU2IvKUNBvreo+MCqymqE37UeABT3vKN+smnrBpMp16omngvt8HNobmmF3UBXuR44YjBGNXwApmz33KmUkqP0VHjt1nemgsIXAzDZzYHlFzEA7qA1aCXr2uWafwp9K3bA1bViIaLGvEO4HHBzchqj5oZGTDdENMDwxhenkztZwF62wzD2+yYhoOUHmggjGDhHfNNwriGElB07fsyEpp9PyYWCo7dDhFx9w2zFhggWGrZCcgzaLXfNQPSu07Zm02ERtEfwPjabeGQNVITsQPoUbhmqQS3a0SA480oSDVIM6NmTdmxABibYxY9auUdcwxkAs07FYtN7GkWpjXcPG0CZO+9WH8goHmsMyYBK+0ZbU2wBkOJhfGQ96N1gCVj02vg/f19qSafQe+6PWBljYZwIaKSZgABNjN6lG6o32ZG4xv1Zq4nps8ajZ9Z87HaxW7mtZwGmPnjBj8O1iLTZ9oNCMTmQK8NX89USv4YkNxtx8Kb/ftDj087wOip9WHSjNowf4EFZs+LdL7+fEoDeP/LFtDyw+5QpeeHkL0VOzBK6t653ltpqLgAT1lBl3CFTZedrZvVzLzwRedszSYClif+vHZH2K6BEsWuWIOrj48LnNUJ6+mnOuHGqEZMWcNaEZ48YPC/k63xYhUDmELzTaHaYcjG8cIFgzOoYQWy0ra/IUfvJUyF5MswuN7P0Wq805jPmWeFxO25QLA9Ayl8Btn/7sc/Bwc3FoBps2tCw/f7QFjMZL/HgzUEsAiRGfiw6p4bUGKBzQnaMEvDtQ7Bei7R5HPoVa8XrKjRSFPegWtYnbCGtqsTYvXEXy1VmWuGgNYMfPzUHO3Cpag4yG4+C6rjGbf+Dp7jeGHLUwvJDvowH2NrmB7Fvo4LOA0tY8xkaDSoDyxZVAVuHn5BtrGXAwx+3xsGk2fWhsKdPmMqSk+DZ8KdkzNgLJTegczNJ0PNhsOeeAf+Di+vjeOCiPLwpJmRFtIN69d3pj6i9wJLOXvyrvvf2botNKmeFLejTdGxSTTX0K02YSIZf+269n2tDe6U833yE1MJuSsk99dZW06E/l+0cu705Rjz9Hzn9tH/wZRZUYBHCu5jYL0uMf+YSZXnIz7E2AGsKIe9HrB+AotWanxWvMlo6Fm3Fyyr2Rh+i6isDTAQXg6c1QmfNDMKbnXC1Pr1nJkNrqMLfM7SzHe3wMwdZpuXh23CGHNZUZ3O1mITmnO8kOrLyND72gQGWMXPeY7MSEXyZhjQLY9n+ud/yarobl8OQDi/KyvUG9hXljELazUdquz8x7wK1M3jhFkF5X+84OzHkKPPUtWqNnrjF3wPjVzd6CEwunYH2BNZQzNgAA2wqzphcq0a8LB+PdWKEYl1a8M1Lm0QJcZV+KIbpgKaWH+mcnahlU7NojmGbbU7inO8cNvETKpLAUVjkLnTbJ+Kx5dCajW0GyRszR10w+8ODhy2Z6HXZ21ljT3P4O91uT5qyxM2XcJ6A9h+Fo2Mr/VW6/2iTUZDt3q9YUnNxnBeQ94BBATXsTphTe5RumH99FcnfFCvrjMe4UpE2iOR41w4k/aZO5rYA/AIwN7BarLmsKY6m2X4IQjjeOG02sqKrq+sB6H4/GOQseU0puLxVPwl3/kYtq0pFlLD7w4CRNszMGhsjKw5mKSkasBAx5VZUHTGQcjZ/9vgl3duPhkiGo2A4W92dmYWaCZ2wHVcYK0C96IiQcRmRjIBQWr9+iC8WQtuRVZjejs2VK/L5OHsPRYFvK5G0ZsWXkiMSoRXdWYejT9cjheWGIXJzDIPbOjjadxZf2OA33tjWike3OduzAN9jZ6AmCE9JOeTa4AJI6nd3P/+8razq+PiBHh9ZGi8A0WafgFd6/eGRTWbwFmLdmIHXMcFNyOrwt2aVrhfu4bTSyDUqeV8xr/xfaxeiGmJ+H2pf1NrtWbyLxaC8nf9jPh9LCxnfIuqoxni2YwRGc2wc7IJUHDcDqay8QQCpbp8DDvWFtXMrt8bULh+6CUo3vkTyXlhdLxh1zYdxl6KJk7vwMZL8MaUvZCj7/Kgewcws6BWww/hszc7ws7IKNCSd0DKuMv5vFn0+0zeLTBmG/HtY/628kJbHZlI4w413H7/dY4X/pVSHvS5sq77gOlpc0D+z7cwFY2n8e80/G24dUTZlD5vBlyJ975bzk6lwrnl//xnUqQKAIXwA7eh9IpEyD96C2AfBk++UfvvAk2/hNb134NZUTFwJqKK5A5bjhEO1Xcw9oEVAIi0xDiNgOVegfXW2L1vWuOS8xvXsuphZgDPcry4U2OMQULiQ9hxB5d/1CbZijpTzCRnxT48Y1fCOAfrGtXfZe+ksISuWYoDBU02bQ6o+NPv8Ma0fc4uhhljpsjmMyWAAnoHohoOg1FvdoIdkbV05x0YW7udJL0qb79Cus1dt9kcu6k+QAiBAmcTRgRNwbgvPL32WxFg6lfeoWsllYxLGedr/wX8/H0JXRl+F8BYvaK85DzLrPrVbxoSr8v3Yj3lHegcfO9A/sfeATxXx+j6UO3s5dwXeyoUbDqGybPYEZL4zwv/2YQPQ2gCzXvryASxMscLAjGlF6bUGkCxCX4V+KnYP+p8AAAgAElEQVTacwic3ZlNl8YfQUDSseegQIfRTIVa4IutpFCDxaePexYUmb7fmVkQbO9ApuaToUajYTDyzbdgW2Rt+MtLCp4cQ63WdwbW6crkVQTlhSfvIX71zq8i9pwxryUOwczL2eEVSvnTgeF/LDCFxssP+Kvd/z24dvAl3Rp/lxdgwJiWTKWKfQ4IvIaGh7FLI3pgnLEDIfAO5Gs61hk7gN6BhBB7B1bVaAhhzSR6XMTEUhEr78bfJcNnKTUwiEAA0zBIeYZGefpLd8zndrn1pZ6x4Y7S9ftdBjnYzz+tLsmcN+5Cjdgu2F/+CPn3bQJU3PwHFJl+ALDZTcYWU5nrJsXD/n6O3oHIhh/B8DqdYWuQvQOYyfB60y8l54tHdyFfJ7YBDvn4LLxjdhBNoHlvZeGFGGJGfRh/rP3+akyspIJBpfnWiM5O13mwDbVa98N+ARjEyDIIVBRIe3wcfuiOM7MAGzhl6TSHuX6stQ30M4wd6Fi/L8yNioGTFnbhnvQcCWytXhvyNhsnPb+YWGfLZ9K5MnjVJjQzr2UOwswt/P3XOJtwnZhRBjOGGDGji1Xubqrv6NaAhXTUMsahum6F7sOYCha9I8TL2ublKruuQbE5RyH3oO/8rlgZKAhw/Q5d81iVcFDdLvBD9QbObn3pMfr4W6xdgEcPOZpNYPKmawz5Rm4kHpWtSx3Xqscl5QmCKTTnLTi7sI4UprYVJq4PpgthqptLibCesZGP3tL85AIKrF/AmjvVA9A+L7vrm4jD6B04CflH/wxZQhA7gO769vX7OesOJAbgHVhfvR5ENRzK5El3fg1rOxOq7rlBAEA2AHDy80ZzWmeVZ83ZhXbuwkivtak8ww/eBkwZclckvl63GdoVkuONt/N3AYQvp9Vj0iHPYCqtqmc5rvTzX1B05iHI/f4q2d4uX7Lg7/voHbA0Gg5D67wNG6vXAUzl8+YdwG6HX9Ru74wz8PceJZceJ+Pvn/F30stiEzqobA7NdXlLImTlePGKnpWFKcZuc0DeId8zjZ5LCTUe1BvuxT1vOLe/y/jjs1Q9gOw9qbmKUeQi4vBdKPPtKWeVy6xvfy1LBlyyoMQzBhMWbzIaqjb6GMIbjYAiTUY72x4Hem3MkDDK2gR9Hjbhevjxe7nMZaVVnK3FLiwK+iIGgPzMPsbCk3fLUnw1+w3QTWlfd4Pu72vsXcBSwOhiNTvPGHX+lbaid+DwI++An90uWTwTjM+w6Q8W7jLq2gRlXnZhnYom0TyXtvLJtTheSA3KopHRD1jo8WxUTsR/pe5D4Z+DLxt65+8CCsc2v8YEAKjMKRVQm0dZSuqbiKNJUG7NeSg4djtkeWeeJE8Ew8j7ukeeIT9QmWql7IBdaGUeS63CTCvHwcucTTinpDDStdIq3Co7/3E2+ij97amAhN8Z9NfmK0nFlq/dF3BmZ3ZTGH8EAed/ySpJE2x3SzyZlieNTBPMLCixIB7yfLgGwlpNl+QRX8Za6fdf/3gD7fyVMv7O64hXIhMgiwqm0RyX5HhxspEVQajnhlHNKPTuigR3KBW3/CnbKFmO3YccfZY+dQ3367leZ24xCbav0XY7X9fOXalnbA/smr+v56p7Kco61HIQyvu7qhJiq92sXeZL8osvPkrP+1iU6o2p+wCbdYWSFka8NxUIChCrcDaxKscLD4zIFJqYk83h7JrmTXFgCl/ZH87JUgaFJv0iS2nNmlPdNDt/F4CQAwCq7P5XFp01wTOK7o7MteuXu36Vt1+FYnOOQJ4PVgfFO4CBqBU2XCQeVI+3H1psKVyAZtCcP4vaBc9zvBAvV2joe/4r07JrzjENNxbxker/Xf7HCyCnsUqPER1MZ/wRBPy1/1UmjRF8oTuY+Nd//jUDzTB2oOzqM1BgzFbZqbXeAL2397COQfF5ceTyV8/wu8v18cpx8H/mtOYBzNpqF4abQcBDOccSC+MljRMG9WF/dW/jxOODrG9LBzS92WsA3D/2nCkBwKU9mSRpXHnHVa/09UZzes/cQAFjdYrNPQp5Bn8fkHcAQT1WNCy19ATg0R3xU1D5aWgAptB8P+GOO97geCGZmFNd5sQGKN52Bt7ey/fp5jQ7BSwR6u277u/lbfMlnN2cw5TGHz0A53dJBwHSEYC6fG5UPRIRlwTl1l1wlinGvgU5+38L2botfFSBMyYWMrWf5YwpQINfcNwOZ38DLNJlVHroYF5JXHxyAfNZdD9nbOGFH3WwmPoXJJvgMwbA3Yi7XuOuA4ud4NqUXpEoafzxd6tnVzat8UcAcGJbLkk6oSeF+J1AAPGACXjAJqz20xya6+sc76hHghA8QcDz58wdZ0saKRcIwGj/KjuuQpa35kr+pu/QdiAeMW6ZX1egH+t517oibDrFTAGOIq8JAAXnHJrorAE6W3hHfXNZdZmzLZUI/+N44TQBgOABAKQ1ggC5tfsRCITJyPev9M5H8O/mjKbe/SMwWLmsIhMAYLYF8Xtw+Z3oTfQOKQ/YhZMUEOgFFFjtwkchXRgNoMNQzb/avpuQo9cSprFyeQGknrO1nACHv3kDxKPm3v0jAPhqTg0mTbFmfKjWnO5LhpB4IFQ84BjkxQSa9y0Lf/81jhfuEkOGiiEFwAAhDCSSMvBSn4//ogHc3/mC6Xf/CAA+iW3IpGfOd5cRADAx8CZ9Fzp9F2La36ZmQW54h5r9aEMQMO8Ya4FLGXlfn3PdBsOtdRlBPPYMAQA+A/T4tAOTlnk/WkcAgAAA8YApecAx180EmvdlZLxYnuOFhyFGZCSEj4UQy4FiWpEvI+/rfSz1e3BhEbi/g3b/rsDAqH4DmHQsOG478Z0plb82AD/p3JCuwwNLglDWvJb/8cytdnEbMWJIGTGtEbIJUGj8Dqbx8gQCwz6JgXvrX4GUONr9uwBAvvZfMGlYdPaRtLQng0g0IR4wCQ+IO0wNACy8ozEZf40ZfzflU+SrA7Ja/JZ6ayT8832WoO/+T27PCZNn1oaG7/eBsl2HQ84245z/ynX9CBoN6gOxs2rBqe05Q3IcceXAK0zjjwAKWyibnf9bnBSh/nHtyoDZ14fmry5vmjYt0Fnv3y6cJAZTl8HSS9/s3b9hGrKMMZNhy5wyzt1/sCL/E7fngk7D3wa8t6cnwtvfjQf1BtuWvEEFAgc2FpQcG1ZjTO/66PX3LU+KkJiUCvgQUwEmXk4xLS30uoY0bkV09/HW38FzpvMEWGxiT2IgRRhINcVZZvUZSSPWfmA3p/G/v/XFoBjY+QsskKXFRMlxeQIBjFGYNKN2UMaIRwDfLAxnjzFmCmDQpRlloKZdgPPJj4y/EwE8/m/kRQIBZuQH08/ZJr5jKgAQdQFe5Hjhd9MvvJu7XWu0wGBAbBXqaUjd/87aYiIkLnvdCQCEQ+o3/BkyrjlzPO5j8/V66PhmQQEBA8a0ZI4Viy9pbc2DNZ5xl1Pc7f6T1/+mpEINu7ZBcbBoRPcxFR9cjD4LL5gGBFjsjsHE4Npm8BILbUwDhgbWFfiXtPkl1Y3qrK8jJcfjy+h7vj93Hqf6eKUyAPIOW2taALD/9sMnRt/zxQe/kReAdKO2daMq62N3vGcKAGA9DRk5XryqChE1vKPW03yx0xj2C/c0nO5/F2g3Gv7+Pqtz9+/Y/7yqBvX41tyALnz3+6fnNR4hYAChK1pf6WeH7VnI2Xocc7yFJ+82LQC4kZLW/e8CAguvPDAtXfSkI2isSoMUxz9oGw0PAjheGE3MozTzKHu94vOPMY0XGt+Z46Ocxj9pw8uQYsugmjFF49x6WDfJ8fgLCNp/9I5qY5bTBbDk0uOmNHQNjgsuW+/1ecfNh6akC+lEZXWYTun5saEBQFQcZOd44Y5OF8cUiskSn+zsI84yqNjs59bajE4AkLzrf6oZUjT+uFNnjSXQzzCD4PSOHKqMffHiqpJjrrz9iin4yVPWe50VvRp+15vnklNNSRdPOtHfpgQEtyITIIthQQDHC+P0yth1EgT45GIKrL/+EE4mpcLNFAD0ZOI/fI0pTeuuPwSMZH4zQb/MW3KRXdJ4rZpW1Wn8sfCP2ql/mOcvZeTf7N8ftq8pCreP/g9uH/mf83Xt/u9J/i52Zi1VAEDvz9sy752p3UzgbPrlkfTI8Je/ew8AdAEATAmsToGABIJMepxr4YXPDAkAqh2GbHrc/Tc5IcIP1x7Cfd9xSy7d9eQZv/v9tQfQ+ISoL0G2CZKR/7j7v7P+VScAuL9F/dQ/LOjDAgBo/O/Hp81ASDr2HNTqxwYBTQb1VgUAVOg+jDnmPINX64svFFTGy/958EROfL1oc0pncqMgfdIDrui3hgDVtw3pBbDYhC/1xKCYq7zgygO/DL+nQkMgMO/vB4DX0sPcS397imm40BAvnxr+ZPfv2Kdu8B8eAWCFPxYA2LG2qE8jvnVNMeZvsWKg0gGAfx94VbJA0RtT9uqCH9Tg2X2MDACX/AyhTADT8ocaPKe7a9qETw3lBbAkQlY97f6jTwgQf9d3pLJLUcl9TriXqgtvALanZRnbim//t/u/9+MrIMarX/c/V5uxzDGhy9+XEb915AXmb/Havn4b6Ptrvi3HvCfSFwss6U4pKbTLveyQlqsZf1EmgFn5g+bt3CwaKxaAswtf6GVhO54W4YograTkGn/X9/4WUqHDae26Nsut/U3ScC2ZYnmy+0/eHpyuf3oDAIOlihXFTIHwA7dNCQCw5v9DGaK14V/KBNCLvqRxquTdtQujDOEFCD8EYRwv3NQDo+DO/08VjL87CGik0biA1z5axwQAZTp//CTyH4P/hINpz90D3TWzfid1BIDBf75+H4ojgCo9P2TSMUevJaY0/ij/k/+QPv9HWfndkQqRCnkc9KB3aIwqGVF989CNqER4VfcgwMILw/TA4FiCVEm3v8voez7b76VqLiag6t4bkLHFVKbhmjepxpPdfzBy/11GXSoIEKP9MeDP9X3XM74nVY1P6SDA3/eGSZ7/Fxy33ZQAoOEJAa5jiL/MB8bf6EFv0BjJeKvHA47+ugYAWN+Y44W/1COQcsyHCkfuA/UYGvKtNx/ClhsPIf6uf1kCizSm3N6Yuo9p/PO3+wKur8n0BADc3xEc9z8ac2zpy4pLwM8w2n/bmmKAZ/74D3f+UsYffzdlVlQa4OACEIE8L1lURXKsZVaeNp1hiz4ugO2efOOPcohJN3P+ekCeAH3vYk3H60raOgsv/IZdc3ULAiy82EtJgqh1LUz1k5Pmd01MBWxkgjUBPMcSZRfg44spcMFLlzNPYIEAAtuhel4jFH9j4R+psr8fjWz+xPgH0/2PRvjU9pySu2opgODtcywE9OtOZQsBdR/VgQ0ATHT+j/LQ+VcRMO//r3Qcq51KSnVeo8VJEaxkDDWhM0Khp8x6T4tNaK1LAIA9jjleOKOHhcM8f6kHNjDxZvg954dHCWuvS18Pv+P521D8XUYi9S9TzCQ4tfxRxz80/sF0/7t24e0+6sI2rM1j/f680/C3Fd39C7Zn4I1OnzHHkaPPUk2suZJ8hoF9XX4VYfSlFFh69QFgKV8EwXKC/aRkzvNzBM54bbwH3gvvifeu7QWQKzlHulbaDQ/RJGg0OaJLAMDZhVZ6YBI06lK7fzT+kX7m8kuBALynFioG5hm0mmm0Wg/o/tTuP3lb8Nz/LgCAtfWxgY+3nXwg72VtOdHpWXBdX4nnAxsLSo6vcOweQwAArNQ37c8HcF6Gt8vTiKvxNwKDw3cewtAL1ElQDzqXxugfeLDyKZG6AwGcXTigh4XG8r6sB7r96x33b8Fw3ugJuCiR84xHBqGkUZXd1+HVGPbuedPsck8BALU7//kyxnPmWSUNrFwwMG++RdHdP47540mNJMdXYeOlkK63ErxW97jgLHvNkplQfrb6GgUPKrHOdA3/db6KNFurKwAQmSBWVpEYiipRrO3Peky4HLiRRgPPeoT6GKDojINMo4WFf+6ue1T2F93/+E+MU7/4jy8QMHR8M+Z45QCAjyY2Udz443grdR/KHFvmDrOBszkU5d1QyNj2m2x5YfF7sD4bdD5wmQ0FTememjK2WpTR1IhjQkndgACrXViuF6bGxj6+HuhaxB1PoHPBQCjW8cKJpNB2PsOcdJbRnPBF/ad2/0mbXlLFePoy+N7en7/AAujCZ43b22eZW0yCmXOrqzL+MzuzS44n/6hNAfNRoPynxu9Y/OxLjoL9PvYbUGPudM3AdSHRLn20s/CO2boAANb4pLwcLwh6WfBbjE06pvqldx6s2gI3UtJ//UDHh+1ovRlK13thzSfDmW/zPgUA1G79683ge3sPMwMwiA8j+V3jZT03HtQb7FvyqGL8cXzYVZB1f/ys9IrEdPNSoGut5O9QJrT+wOBAJedM10qf8SL6KUK/5PDj93JpHgRwNmGMnhYcd/m+Hpjjn965YK0AXw+8d3qvH+jvC0/ZwzRa9fv0f8r4Bzv9z5vh93zv9I4cTuOLBr58t48gZ5txzn/4Gov8YJ6/0ql+nmPAv+sO6MekJRZZCj90J2RrHSiPePsdRt0n+2ZpX6wetPcxo8fbuOk9RYwQ0TaUqahaLw/8qPCP4x89CRsLAGy7mX5lwjozDSUAyNZtIdNofT3xv8p/zvP/IDX/8WZgtfze1QOvAB4vsDwAuQd9ZyjF2e6UCAduP4QUBngOmsXHokGPswDeO0c7fz3pXhqrv6BMvIo2VrNeAI4XOultUdU+AsBOgL4eoToCqLDpMtNgZW85Af5ane0pD4AWzv+1CASWLKrKpCUCg6KzjxgKALhkHLNjBp5Pgal/PHDWvsCKmP+qgAqwGND31x7A4qsPYNZfD2D85RTA7J3Bv6VAn7MiYCEv15jo2V+jQt/XE89Y7EJ7LQOA/XoiJo5VzSBAVJAsD0OoggALT97NNFptPHL/0QOQvNN3210tGuZgjUlOkaLK26+aykBhcaCeZ0XADJojdx46y/r6AsGs96+KqdD7LBl3velUGq+KoMrm2K1JABB+XCinx4VfJ5EGiLuNQOcl1f0sVGmAWJGO5bL+bnrVp3b/CABClf8fLEMeyH1uHH4RcrQaz6Rl1q4LAuafQPlOa7/rey4F0Jj788DvN6advel5R2u8rInx2IUymgMBmKagCeL4GaQxUiJXHzuYBZIKiLsgKXfoiBBULqu27xaz+E+2lhPgnx+ypAEA4tFnVYuiD8T4auE3cpr/oLdFj3Kh9Jix98Vt+f22aOfvpx5Ter3oeiru4tO9tuI0TQEA7FvM8cJtPTINluOVym0+eMe/UsBYKhV/w3rgPUNRw7zkIjtzx9qkb580xj8U9f+1YOClxtB8cE8mLdHLUnHLnwQAHiu8Ty8xcm7dhAXP/PWoS2jMWjaahhrbrXJ2eEUzIICziT30zPwYYCT1QIOOu3qpeeK5v5Txx3utCVEzoNdHbmQarSlj66QFAJtDXwBIyhgH+/MrB16R7E+QrftCSX6R4icjfY5gW85BwJKrVMjHSOtOc5G2G37TyCa+ox0AwAsH/Z5Aut0gyhEVzxqT2Bt2Jz64npIKeK7vrTcAHhNg0BN+R+qBx6HY3jToNLM5IHPH2UwAcHxp/jQA4P7O4DcACrZB9/d+X8/nmHTE3f8bU/YGf401JFfe+FtOLAC2EPb2W3pPOZ1HtNQ5LbUSDGi1O4pzvJCqd4aa/7e0F8Bl2NGAY3ofFvnBf/janxinhVdCs8ORSv8r/dbHaYy/MwBw3//R+T+f4Ska1BvYVxIAVNr6NxkyD0CCWQFSD0zt07s+ofHr3MB68K0G1zPVcsxRJOReAItdmKBB4vitQLB7H6tsr5TSkvs5llKt6WdrYaXoW3TmIabRGjC8jVcAIBx67inj5+9u2Wjfv7QnE4RJlCHO3nOR3zyo1Dpr+TpyjtuaJBIA0PIa0tg0Am7swhchBQBRu+B5jhf+MgpDRB8X4E9B2oUv19h7fu9vIRUahTC1Ke+wtUwAsH5mRa8AIJQdALUIHqbNrsmkI7r/i0zbTwDAyy5KKjUWg2OtXn5nFB1D89CI8TQGj/3R+jt4LmQgINLuaGI0hu5wWgQ01Eo//hJSAa8dSnpl7jTHp+HC5j9XVmdNCwB+fIV2/x7u/8h3B/mko6u+QuUd5ir+I5ev+59jZwKcuU8ZAHJpSd8jMGHhHfVDBgCsduE7IzIhegKwrKlSD3T7h7qoSZVd15hGq2qXoWmN//pXgEoAP332f2JbLiYdEQBgoSUjyoUSc2qaKDLFaocC/TeUGCddg4yrTnhgWUgAgPU0ZOR44b5OiOS3QsZz+kVXHvgV3Oep2TAwEAP+QnXm7742pZYeZxquPkPbewUA97e8SB4ANw/ARxOaMOmIAKDozMN+85v7Whn99V1GvC2lAJLhNTr/Kzk/Cy/cwzo8QQcBVpv4tpIT0eq1sIIZluyVKhbkbvzxu5jnH5JUPx9nWwXHbmMarnmTPLr/rX/FCQiSd1AKoCsOQbA9A8U7f8Kk46sxU6DqnhsEAHzwIco5K9gWiwVpVRfQuAicaJEHQtIgiOOFLVokhlpjwqp9H19McYKBxKRUwE5+uMPHf/ga30OggN8JRYU/qXnnfHcZ03DFLy7o1QOQvIuaALkAwM/fl2DSEHf/eQatJgPGMP7Ip74CAR+kAjSQUWxLitfpczLUZuIBCy/8GFQPAGe/m5PjhRQzEVnPc7XYHBDWarpP45Wn9Vi4s/5VrwDAsYdqALgAQJeRnXzS0BX8V3JxAgEACQCAR2IXktMG2q6+Fpr6GHqWbRo7gR2OF8RqhyFb0EAAZ3e8R4ynH8arsvMfpuFq+G5fr8YfiwAJ+5+nGAA+A2Dnv5ytxzHpmLHNVxBx5B4BAAkAgLoDM2IwM8b12H/7oSY9Z6Tn9KPnzLxWVl7sHTQAYOUd+8xMbL3NvcyqX5mG64MRrXwDgANUBAg9APMXWJg0RA9AvlE/kfGXYfxd8oPls7EbZ8+zIuX++0E3F/3oWR446XZGBAwunfbnA4gKURE29ddK3BEUAFA18V5ujhceqj8heYtL45CmU9FZ7AqAcybW9A0AqAqg0wMiJ/e/7JpzBADIkBEPaIgHxv6eAhhb4nqcSEr12svFAHbkAR7Nqw4COJv4rgGIZSohzffZZubudefXJQkAuKX6uc78Xc9HN73OpB/u/rO8NRcw1oJkQxqQEo2IRsHggbanRHA7ZXJhAPjx34eGlFOrXeyuPgDgxR3BWDy6h3JKIme/FUwDdvm7HD4BgHjkWdPHAPQd3ZpJPwQAhWN3G1KpkBwqJ4dEy+DSEt3+3h5Y4q2ZAftNWHlhs6oAACMNKfo/uEyshNLI1H6WTwOWq/U4n8YfgwDFo+YGAMnxz8Lr7cf4pJ8z+j9mCmClRSXWiq6hP/miNdPmmp2+7+b790AC4y8bst6EGJkAWVQDARwvdiFm1yaz+1qXiKNJTONVxUcJYDT+BAAywK51RZj0QwCQZ/D3ZPw1dO7rSxbofX3prvSsVyQvgINRzf07w6acim+pBwBswvr0LAr9NvgCKNUDoFm/3mwPgMmPAD6NjZYEAKW/PUUAgAAA8YCGeKDVSXbPiSN3jBkHwNmE1aoAgOiz8ALHC3fJiAffiKeH5uV/vMA0YH2HtmMDgMPmPgJoPrgnk37O3P+4JFL+GlL+6ZEX+q2+9Juv9Rr8G7vr5FXRsF0n76KtVhwEWG2Ohr6ITe9rV2hKrzjJNGCfftqYCQAEk6cBFu70GZN+eYetJeNPxp94QGM88NWf3gMAXaEAGB2AdSiMaLsi4h11FAcAnM0xy4jEMvqcis2NYxqwaWPfJADgIwXw1pEXmLTD8/+iMw4aUokYXS5ofsY0fq51xVQ/qUfXM6IhZddqF6coDwB44aKLuPSsH+EpPHkP04h9M9nKBAAOE5cCPrk9J5N2CADKrTlvSCVCMq4fGae1SrtW9nu+MwBcwOAz43aePK8oAAg/LpQjJkvLZHqgSYEx7DbA62ZWYgOAveZtBrRtTTFJAFBl93UCABpz/+pBLmmM6urTW+wQACcGWHzVuM2nLAlCCcVAAGcTPiSGVZdh1aJv/s9/ZhqxXfNKMAFA8i/mbQe8ZFFVJu0yxkwBS3wyAQACAMQDGuKBt39lZwC4PAC/3DJoJgAvYFXSgYoBAKtd3KaWgaLrqgss8o3cyDRiBxYWZQKA+ztfMG0lwC+n1WPSLuvbX5Pi15DiJ12iri7RC33lnP8jCLj/EKC5ASsCOtfJLvykCACIugAvcrxwXy+LT+N8Wgm8NvxHphE79E0RNgDY+qJpAUD/L1oxaZez/7cEAAgAEA9oiAcGnU8B6dN/lw8AIDEp1ZBtqC28cE+RdECOd9Qjo/q0UdUTPTBNzVmutnms1+ejiwozAUDSppdMCwDeGdnJK81c9Hx95AZS/hpS/nqSSxqr8jp11MUU567+P/Mu79WF5FQwYkZApC05Kt1eAKtNmEjMqjyzBoumeQavZhox25KCTABw78dXIMWWwZQgoMWQ7kzaFRy3nQAAAQDigRDwALruB5xPgdg/HsCa6w+dO3l55t73t9AbgA2EPr+U4gQEdRL0q/ed9sUmjEk3AOB4gQ+WsaL7KM9weQaxAYB9SQE2ADBxQ6D6A/oyAUDh2D2k/EOg/ElPpNUTZVaeBgT72bp/A3g0VWj8Dqi676bu+dPKC9DrrAiz/3oAm288hFNJqZAkneLv28r7+QlWDMSywauvPQBsINTipK5qBxxJFwCwJEJWjhceksClFTi90ETqCODwN29IAgDhwHOm9ABwfT5gAoCiMw/pXsHqhY9pnL51UIn5x7zyaZa35kLVPTd0y6M9z4qA7nmtPfbffqiX4MGHUTbIHDAIsNiE5iR4vgVPD7TBc2rXmbW3551fl5QEAMm7zZkKWLbrcCbtis8/plvlqgfepTFK6x7LsfvAaveNdUD0SMc+Z0UQtWf7n2CRy45UqKeHUkXVNxYAACAASURBVMI2R6PAAQAvxuqReWjM/ymO/KPZdQDWz6woCQDumzQTQKoPQMmlx3WpXEk+/pMPvdOi0ta/mSA1R+8luuTRSw4NW//HMADjD3TAP+MDBgAcLxzTwQT1sAghG2PBcTuYCmL51HBJAJC04WVTHgHkajOWSbsyq34N2bqSXBrHiKdnLcuv/43Jozn6LNUlj96UUcnvyXY8RC8WXdE+ALDwwqGAAED4IQjjeOFBepiTfht6JSXVC2DuxJqSAOCeSQMBM8VMYirXsj+c06VyJbkMvVwqtQZlvj3F5NHcg77TJY/+cC2IkX4BAAg8nsCKg0qto4rXSbGehox+gwBq/2sMJVF01iGmgvj0syayAIDDZD0Bko49x6QbxlNQIyBjyIiKyld1A1HyG57Jp6+NWK/6GNSgX+0EAQ7c1iYIuPsAYOTFFN3Q1Wpz1PUbAFhswpdqLCxdM3hKs/KOq5D/s81MBdFjSEdZAMBscQDXD73EpBsCAHS/Ej8Hj5+J1mlpXXTWYSaf5v98i655dOiFFNhy4yH8LaT6VeEvgE2915/cewDwj5jqzEY4eOchTPvzATQ6oYud/5N1t/LC534DAI4Xd5LApRU4LdOk2v5bUGrZCcj32WbAOvXeov4932vQp58sAGC2gkCX94VJ0q/8jxeeCJmW+YLGpi859me9pI74Ck3cZRgeRa9Al19FwIp/31x5ADtuPoRzyamKZAucuZ8KY39PgU6nRYg5KUJ9PUT4y6/BscU/AADwLMcLt/1hRPpu8JVMxNEkKPv9OSg0cSdgtO+rMd7L/Xoaffe/S7/1sTwAsP4VEA4Grx7AvbjnYcbc6lCz3wDI2Wac8x++njm3OuBnKby61QnP7comCQAqbLxkGOVK8ht8+VWC5lLtvovOOGh4Hq1pF+Djiylw9n5gmQPfX3sANez6XH+ZPHQrA8CzskFA+HGhnMwLG565tEaHytuvQpHpByD3+6sgrNU0SSPlbuy9vc4SMxFur8soCwQkbw9OZ8BLezJBRK/BPudm6f0B4HfUBAHHt+b2eX8XHSv+9Dvxv/xdCNFKBVpJ1fnAIkFa02FqjQeBgNxOgC5//7abxm0J7E7n6vFCKdkAgLOJPdx/TK+1gQ4x7zxji6mShslloOQ+S/YDWP+KEyBgOqAY/4yqhhd39yzj75oTggA1PQFHN70uSeeKm/8wjXIlHaANHeC5DnkGf8/k01LLE03Fo5F2wVm612XgWc+Oh2A0V7/PtbbwYlfZAMDCO+Z7Mhr9HVoFUGXXNQhrNZ0p7C7j6O/zN5OtsjwAmA7o2Keu+x3d/nLHP+vrSNXAyL4NhSTHUWXnPz4FjuQltPJiFvrn7Lecyadl15gvVRXT8+Q8tptk9/9IFhxzZQMAjhcSzCJAeplnken7mYIu12h6+96A4W1kA4D7W15UzeiiS79G34Gy5xnVb4BqY9mxtqjkOKoduEUAQAW3tl5kMr3jjDh8B8qt/Q3QTV9o/E7IM+QHwMI9WbvMh8wdZ0NYm6+cPBjWdoaz3C++72z20285YHpfoQm7nN/zJtOu9ypsumw6HkUvgJwywthgKL1rqKPf87IAQNQFeJHjhRQdTcwUi5j/c3ZJX5fAB/Ic1XOgbACgdlEgqep77vPD76oVB7BpdUlJABARd98UvEe6QBlvhiU+2Vk7onDsbsCde8aYKZI85s7vgbxGz6EZ1++8jCZCIy7oJ5dfgTUU0bZLggALL1ZT4GamZDo16VbkK/89AGGtpztbhBaO3ctUNNlbToCb68Jkg4DkHeoFA/oDAPK0/VI1ALBuZVkmzTAAU831pmsrY3S1QEesx/HG1L2yU3MDMfS+fvP6xxsAS1Yj+NACLYI1hp23pIsIddZHJT/F1i3CLlaSAwB6BWuR6D7ylVxEXBLkfHcZ0yjhjiJH3+WAOwx0LbrvULN0msP87S/zpLsC4u7f+e/HV0A8pk4woFaOAL5bXoFJr8wdZismmCQH8uVAT7RCGcw1YBWTj3wZbqXfR/kvNOkXqLbvpin4duGVB8wwAEwYrJNgTL7zJSNWu9hNEgBYecccXxeg90PLMBGH7wJ293PPBMjWbSFgLjDWBA8/dMencOcduoapiIZ/0ly2BwBBQPIudVoEY56/XOWnZhDg0sVVmOPA81iSh9DKg1bpj+mheT5ky5tcHlf6exlbToN8o34C9EpolX5KjOvTS+xuQtfEVEPP3xsNrbw4QxIAcLxwxNuP6T3tKLuII/eg4pY/ocruf2UzcbG5R5kGrUqXoX4BAKwMKMYp7wXA1D5M8ZNSfPgdrNevVgzAgoURzDHotcsaybF6cowAHI1rIAW5pPhd6c9xE5F/9BYIP3hbtg7RE+9gxUDWw3bPfACA44X9TADQ+jt4juOF+3paaBqrPIWGwUBSSuTE0nx+gQC1CgNhkR8WCMDP1C4EhN4FFr3QtUu8J4/3zEAnbAwlt/w2i6+C/Vmm9rOgxIJ44GzGWkssG8yqC7jhX3MUAPKQvbvMioCRvKOYxw9IyRkozQlTiFgKZsrYOn4BAGdGwJFnVdmF4+4ejTCm+mFgIP6r1e8953tq7vxdHoUps6KYtMo7bC3JhoFkI1C9Z7E5oOC4HbrY9bNkP88Hq6HqnhuG4ukrgm8IYLIUwCfrWsOeXMinF8DCCzGBCgL9TvsIGnONWUqgTu/3/AYAST+/pAoAcBniUD1/PqUBk1bYcIl4Xvs8r+Ya4VGcVGwNS97wMwzcLTjgG6gcux7e/HYXxOw8Cm/xidDl1K/Q87fz8O6fl6Dn+fPQ/exZ6Gw/CR3jT0CzbUegzqpdED7rJyj92SrI1XU2k1elxuD6PHOnOVBhw0XD8PWmf31nAvQ5q6+OfkrxsYV3NPYJADibMEKpG9F1tKcc0U3pEnZvzxljJoO/xwDoBXDs+T/DgYBBY2OYtMKIauJx7fF4sNYEo+mlsnK8yRi+l6nVVCgzejU02rgfup056zTyaOjT8++dxNPO61WatA6yvzWTybu+xoXvY5BgiYXxhuDtd8+KXo8BsL0vFgsKFq9o6j424UOfAMBqF5ZrarDkYlSUSTEXGFE+SwH4mw3wJC1QpaOAUHkAuo/qwKRT0ZmHFV0bkjv9KGRsu5216wImf3iTMdyp11yyHbr9eiZdxl4KKPS5fBGabz8C5cevgcytA2sYVmj8DkPEBay7/rQXAA8FhpmrANBTespiFxb5BAAcL9hIEelHEQWyVtgf3Jtycr1XoN1ouLYms/9HAZtfghSbui16gwkGWn7YnUmnEovtTwlWIGtBv9GfrGEqrr87/2wdZ0DNb7ZCr0u/qWr4vQGDrr+eAevXmyFrhxlMfnbJv/szxjbonUdxp7/k6gO49wAAqwOa2fg/Xssj3gEAwLOUAaA/heSvgGL+r1Sa0uwJUX4DADVrAwTT8LvuVee9/kyFWWb1Gd0rR395x+zfx8JauQd9x+QLdwOKrytMWAM9zj06y/dmoIP1Xo/z56Da9I0Q1tK/bqJ01GU4m4CZAM+kAQEYHWh2ATfL/HMNWMlUYuXfHg6312UMCAQIKncLdBlotZ+r9hzCpFGFjb8TADDZEZ0zx795LJMvXAAgR+eZ0PTnQ0Hf8UsBinaHE6DAgEWy5uCaS5Fp+4nXDcTr4fb7r6cBAFabo65ZDKDZ54nua5dw+3peMDkyIADgLBB0WJ3UQLWNvvv1i3UexaSRWZusmFV2is4+wuQHdznK13cBvJ14WnPG3wUO+vxxESyzN0t6Ap/MKSYWSi1PJBBgEBAQaUuOSgMAOLvYx6zCbbZ5Y18BqWDAUm+NhBtr5TcIcgYDPu4VkLTxZVWqBLobaLVf52wzjqnw8SzYbHxj1vmWX3fhqfLbTwyjF29A8eHLNeHydxl71nPjnw5C5nbTmXzumis2Fqu4+Q/ieQOAAKtd7J4WAPDiJLMKuBnnLWdHM2FM/cC8AOtfgaSfXlKtYZDaxv9O3P8xlWJYq+mkCA2gCOXIfcThO5DlnXlMfnAZyeLDV0Dv3y9odufvDQy0P5ogO20QMx8I+Oo/JsDKC2PTAgC7sE6OQNB39M8AuIboBcjy1lymYsvZahycXZEncBCwSZ8g4NedOZh0ydZ9IQEAkwCA/KM2MXnBZfwLDlz0pHCPN0Or5fc6IAjoJK92ABXAMoD+twmr0wIAXjhBxt0Ai+uHYpbjBWg3sFvAAACPBZI2vwRivPJNg9T0AuxaV4Sp9LFsKsmK8WUF2/lKZcwgAMjbc55iBX1CBRTQE4Dpii5Aw3ous+o08b8felaDusL2NAAAeIbjhSQNDpQYTUVGizgqHQuAimD51PD0gQD0BBzVT2DgsiWVmYow/+dbiC9V5Est6CHLsfsg1TsDZQPP0DscPa4rt78vkNFqzzFZaYLY9AjLIGthnWgMAQHxO08BgOrxkIMIGRAhdS8EcjIC8rX9As6vzJ0+ELDhZRAOq9e+V0mPwNjpdZkAIEvnuc5WqsXnHwPs/Y7HKSQ/xpKfYnPjmDzg2iE32njAEMbfBQreXMnuF+KaN9UH0De/RyZAlicgIMIuViIFpu8FDXj9bALkfn+VpLKL6jkQbq4LLCvgSYbAj6+AY//zmu8b0PWTjpL0cClCfMbe6tl7LYZ8n26CYnOOAkaNU7CUfuUJd7eZO0k32Ck/9gdDGX8XCCj9mXSxI+wZQKmw+uXx8ONCuScAgLMJzQI2IAZ3BZqBLlgdMKyVdM3wD0e2SJcXwAUEkre/oOmywRW6DfMLALiDgSevY2Kd9eJf/3gDlFycANiHwQy8ZIQ5Fp1xUHL9s3WaCd3PnTMkAMAGRTnflgZACHiNsN6mnIPN0egJALDyjn6mJAKBlycCXHjKHkmlh90CAy4Q9LhGgAsEJGFcgEYbCGVvNV6SFk8MvZdccG+f5RnyAx0V6EDesNxvFomGWbi+tVfsNKTxd3kBmmySBkHYyrjStr+f6BCyITryCNjFPk8AAMcL42nxdLR4KihSPMfO3lO6RGiWmImwaXY5RTwBWDXQsff/NOUNOL87i+LG3wUICk3cScpSBd5VUneV/IaXXP/Xes2D3pcvGhoAIBAoPmK5JC2wPLKS9KdrBccOWWzCl08AALUBDg7Rtc7clbdfgbA2X0kKfe42Y2HvguLKgABXqqBGygd/v7y85PxdBt3f58wdZpOy1DgAkNPpr9nWw4Y3/ggAOsUnSmYFYCxA1T03iK81ztdebM/SJwDAwou7vHyBFlV/i5ruNSu17IQsA5intbIgAL0BGBsQ6poBH01oImv+/hp/1/cpY0C7YLvilj8l1x4L/rjc5GZ4rjD+B0maUEaAdnnat10Xtz8BAJxdOOn7i3qcHI05PetZYMw2SaFHg5a3zZfwy7ySinkCnIWDNrwc0mOBegP7ypq7y6D784yVF9OzLvRbdeW64Ljtkmtff81eUwGAzvaTENZiCpMu6NnCugnEn+ryp8L0Pf4fAOCFfxW+ODGDjr0HGAiVo6/0+R8avxwtx8Pq6VUVBQFOIPDTyyDsfT6o8QE3D78AWVtO9KnsMN2v1NITUDh2D+Qd8oOsYDF3gFBi/jGSC63KhU0ArO/gvl6erzHyv9el30wFANDLgemOnrTw/Lv08pPE21rlba/jEq86AUDlOPg/jhdSCQDoCr2pLmzVDtySVQkNFUGmmEkQ+2UdxUGAEwhsfBmEfcGpHbBhVWmmosvRZ2kaulfddxPKrD4DRabvh9c+Wue1cQzGVWDZZZIx7cpYhY2XmGuPfB4x6yfTGX8EAO0OSbcPR0BM/K1d/vayNg+jdsHzGSz8/de8fEiL6RU16WqB072GVXb/C1j20xPt+/r7rUHvwD/fZ1EFCNz76WVw7Pk/VWME3hvTijlXuWed4QdvQ7k156HEwnjAuukIpkjGtC07hSfvZq499gRAd7gZzv29zbHQoMVM+mBKIPG5tnncUweFH7+XK4OFFyt6fkB/62sh1VwvzAzAMz5fRt/z/cpdhsHRRYXVAQGYMbDhZUje9T8Q45RtMJR07Dko0GE0c55Y4U9NWtO1Qyd3UtH/+fsuMK3xR0BQ73vpOiElFsSTfOho4+isBsjxjnqkeEKnePRA+wqbLkOm9rOYxtEdCGRrOQHGfhENt9dlVA0IuLIGhAPPKRInsPbbssz5ZWo3k6r56Ui5+SNXEYfvAO5g3XnY87VZ3f8ub0CPc+chcxt2tVDqkqkvO2KxJ7+ZwcoLbf0RFvquvhZZqfXCil/+HAegAq3Z4304/M0b6oGAx9UFnV6Bnf9LV2XBFkN6MA3Aa8N/pN2NQQFA2dVnmGuPvNzyl2Om9gAgECg7ZjWTThgki2BKKZ1D11HZ1tiFlngE0IsIrTKhDaI4MeAtR+8lTCXguXMKaz4ZugzuDL+vyqE6EHAFDWI9AWw6JB6Td0xwbPNrgGWOPcfu/neZldQD3ah64o2pe5lrn6X9dFNU/nPt9n09R/+4j0knlJfS354iAKATfW+1i90zWHhhmFEFm+alPLAJP3QHcg2Q7h7objzxdYF2o52ZAtfXZAoKEEAw8Cid8CVI3vYCJP/yP3AceB7Ew8+CePRZJzjAokMIElp/2I2p2DJ3mkPuf50otUBkPs+Ha5jrX/KTlabf/SMo6H72LGSUqAmQf/QWAgA6kRWL3TEYjwDGBiI09BvljateaIp1AuQWC/IEAsU6jIKZE2qlv7WwR3Mhl8H393njrPKSu/9CE3aRUtOJUgtEhqSOtqxfbyYA8OclJw2ksgGyvDOPZEU/sjI6g4V3zA5EaOg35gUArrXH4h8YHOdp5OX8XbLTSJg5PgqC7RFwBwh/f58VinccxR5/zBSovP0qKTX9KDW/1iriyD3AFD8Wzzb+6SABgMcAIHLBFiatkI5V91JvAJeO1PKzlRdnZOBswgotD5LGpm2gUWXXNdlVA70p2ULtP3dmDKAxdjfOar/GDIU2A7pLKrPXP97gl0EhftU2v3quT8Wfpev/v8UnEgB4DADaHpTuloi1LzzpTH9rUi6WYQzAj7Q42lscS3wylFn1KxSddRjKfn8WLDaHZoUK64BjIRWMAvZm5OW8l7PVOOg7tB3ELSqkOhC4u+5V6PlhR8mxYmoY1kEg+dCefCi1JhjcyeJPTH3rY4LWv74C/9K8/8clyNGZ7fVDXaDU+tB1VJW9tRk4XtxORFaVyH4Lw6OUu3lPKaac/VYAVpjT8lrhuHMPXPnUuFnK1ddndXu/BwsmRcJVFaoK4jWxYqGve7u/T73OtSUXavB+yUXsHW3+fuYuAJQGAPx5CUp8wpbx3IO+07SeUoOPdHrNLRk4Xtiv08Ebksmq7bsFmTt5r7yXa+BK7c/ZJkDJJQk+5+BuYKVeo1eg86B3YNW0qoqAga1zy0DZziNkGX+MbaA+58YHAEVnHmbyQ7Fhy8n9/9j97wID1nk/M2kW1nYGcBr2WJK9c8m1Yw8CABsRxEWQ0D/nHcpOSaqw4aL2QQAvAKYLFhq/A8JasauHSYEA1+dYXbBx33dh/BcNYNe8kvCvzHRC3PEjgKjVcyBTabnu43pGEENyEXp5UHsNpHoAlB29mgCABwBo+vMhSVlCb6Daa0fXT598WmxCHAKAX4mQ6SOkUvQrscAmKVjF5uirqxw2FMr32WbJUqsuwyv3OWuLiVC1y1BnIN/gEa3gy9HRMH1cbWetgZGjmsK7Q9s7KxFmbjFJkqae93xt+HpSXgaN+veU1QJfbGXyR+XY9QQAPADAOyfZcRMoTyUX2UmGtC5DduEkAoDfPYWC/g4+IMBoemwb62mMPP8uvUKffbcxmO61EevhVYma657zDfbf2bot1HyshRLyWSdBgE8upsD66w/hZFIq3EwBSEl99A9fJyalwrrrD2HkxRR4MyH48qDEHOVcA0s8s3iMm0s1AFyuf/fnHJ3ZvUEKx+4hAKB1AMALFzJwvOMfOYJC31FPCWKEf6732IE1qKSwyEZEXJKuBavS1r8h38iNinsEWEpc7mdZOs2BKjv/0TV9peS0yQkRfrj2EO4/BNkP/O731x5A4xOi4WgjVQUwauk28gB4eAAQCJQYsYIJnCh9Vj17ISXj8j8Xr6AH4Ib8H+hhUvobY5GvDjCFyWnAYqZAubW/GUYBo6HN//kWCGs1XXruzdmFWuQaeNb3snSeC5V3GLfgT027AAuuPPDL8HsiBAQC8/5+AHgto+iM1z5ax+S/mou3EwDwAgDCZ/3EpBu2VzYKjxh2HjbhOgKAO4adoIouGNyJo0EuMv0AvD5yA+QZvBqQ6fMO+QHyfboZCsfuhjLfnnIGw7Hoi4VIMraUDpTDgDrWdfT6GXYPKzbnKGR9++m0R5axVvozTLHERkd6paHUuKNPCBB/N9XTngf8d8K9VMN4A3CnyuKn6gu2EADwAgDqrNrFpJszE0BF/SvF8/S5LJB+EwFAEhFLFrGcBgKjWzFwSG4JXNzhYj55pS1/pTEwWFM/e+/FTEFC5ZSt+ze6d/1L8Ziz8NG3pyDvsLXpKijEUuaen2HhIuwEh/eWGp9eP+94WoQrgnLG34Ua/hZSocNp/R8J5B+1iSl/eugD0OFoAkTO3wJFPlwKr/WaB5nbTnf+w9f4Hpbv7XD0uKJAptm2I0y6oaxVO3DLsHKlV33gMe67CAAcHm/SonlBrliEBw1/wNXuYmIBU/wqbPz9CX0LTdgpKUR4vwqbLj/5jRnWChVHsblHnXERWI3P03Cn+++YKYCR/kav8Y87/z9VMP7uIKCRzuMC8BiKxU+WOZsUNZzugXTpfd1s22HAQkWs8bt/lr//QkDDnd774u872U5I3lcvKctm0Kk+5ngfAUCKjw9NZXRYNKi4+Q/I2mW+JMO7CxvrNVbKKrGIlxUIV+Sr/aZeBwQDJRcnALpq8ZyeRVepz7DrGx6lGD3QD3m5hl1Zt7/L6Hs+2++l6jomoMAYdhpgtekbFTGYShhd1zW6nPoVin20PGBZKD58OXQ5dSZd8+p16YKk/qJUQPmeZZb9UfEzEQFAqoo30L3xKrvmXMgC1fBs2sju6UD4DqvzlV6R6HTdYzZBjr7LneAsU/tZzlgK9BjgazT2uQasdNYgKD4vDjDWgrNpXiAVkxcM+JP7EFMB0JBvvfkQttx4CPF3/csSWHTlgWLjDoQn0vObQpN+YRrSsmO0VQio/ZEEyN11DnPMUkAYP8/5zmzAxj4uUBHIc653vFcsdd2/6MxDuuWL9PCUjn77kACAF3e/awErbLwEGWXk5rsYXslnvK8ZdqouWtOzcuAEU/3kpPldE1Nh3OUUwJoAnvSPsgvw8cUUuJAsHT+AAKLlSX3GAyA4ZMltoUGL02UkAzGsvn7T7nCC82yfNV5/Psvcbjq0O5IQ8PwKf7CETbuJO9PwlSef0d9pZS+INHECADoC8AICsJQt7iL9ESglv1t8/jESHi/rEkTh0C39Mc9f6rH/9kOvht+TvniUsPa69PXwO56/1cPfZb/7lSnjuMv1ZZCD+T66/XN1Ze+4A9E/eM1AjwPKfP4dk3b5Pt2kS57QA98qNEbnEQAFAXoxNPk+Yee5BiJscn+T+/1VpnJXK8TMpGx4wWnUpXb/aPwj/czllwIBeE89VgzE7ByWXOKRUu/fL4QcBKTnzJ81P/ys+PAVAc2v0iR2DYW8Q74nmfRiWzSk75xBgJQG6LFITqUQI6/4TNl20+Gz/nPhp+EL4Miob5z/Ng1fCF17zILMAUawh7WeDsXmxhEI8FgXDQmOZhUblvdlPdDtX++4/25H9ARcdLCPA/DIQG9rFHH4LhMAoIF8y54YkIFUykPQbKt0yp2UkZf6vPl2/7MDLLM3M2lHxYD8l7Mgy48zDZAKAXkYGizsIyUwOVrEwtcfzANx4jJ44OPf+dGLYWCf2ZCthTww4XlP9ARU2X1dd0o1yExM9HHjX6ztz3pMuBy4kUYDz3ro9RhAqqZH8x3+G0eljD9eR06qX1jLqVBx4hpotecY9Dx/3vmv1e5jUGH8D5CxhXQqbYH+C/0GOTWXbGfqSTxCJV2gaRDgLAREpYDdFCie/Uu1sH2txRTY3WcKCGMX+zT+7qDg4heLoX/v2ZBFplfBHQiEtZ0JpZfrswEQCX/whR8b+/h6YLBe3QB2/651xMBA1vHCiaRUXSr8HL3ZwWxvrtzpt3FUCgBgkR93feDtdbaOM5yG39c9EQhk7TBD8jod4/wrFlT/h93Ma2IRNBfv0HPwdYEkzR+VAqZmQO6EKrWUXeAirHksrOs9Bf4dOBWSRs2XBQBcYODc6MXQvecsyBgAEMB8Zawc6D5Weq1BoXIDk6FYn1uMTTqm+qV3TKySwjdS0n/99I4vkN+/PoLdETCUtQCwwp83o+96D3f+uOv3Zfxd77f85ZikJ6D6wp8lr+O6Hj433XyQOTYco96blwXCT/r5zaNmQNQO2E1pFxizjcnUHTo+Mv4IAG4O+covAOACAoc/WQQ1Okm3/nUJuesZz9QwD14/DEYGOthrhbt8Xw/M8U/veLBWgK8H3ju91w/F79+Yspcp8yU/WemXYXQ3kul9jaV8XfLv7Rnd/nLvUX78Gua1ig5bJvtaeM9We+OZ18PxYgXVUKwp3VOW7sV2wMKvRKz/iIXn7t4EzfXept5Tnbt/BAD4zzH6m4BAQMqEZbB0yHx4o/VU5v1c93U9Y8ta93LCtHb/rR3RQgAWANh2M/0AYLsBAUCppceZMvj6u/P9MoxyDbKc7+XtxU5FRiMs5zpOg737GHOe2DtA7rXwe1hDwKWXfD1X3UsbFs3qJbtwEgGATbMDdNuZB2uM2Xv5bs6TMyYWrg54GgDcGvwVpExYGhAIQI/AjXFLYEDvOX4dC+DZWqllJwhZh4A/gsWHgd5H7SMA7ATo66HXIwAs9e3LgOH7mVtPg3f/uOSXcfTHkLK+i419WGPDgD/W790/w++yroWFgdy/L/W6Mtfd+gAAIABJREFUYzz7uBTvRcXMtLtBsdiEOAQA+wNVNkb8XeaOvottVGgd+9Tu3+UFuDt8NjyY4DsbwOX6Zz1vG7EQirfxwxsQEwtFZx8hEEAg4CkeUDMIENMHWR4GvQYBRhy5xzSMaMi6nz3rl3GUMp5yP0ejzDLa/gCAHufPMa+Vpb1/AKCz/STzejhub11QjWg39Dknx54MHC9u1+fg1UFWWEfel8CFt/EOABAI3B0xJ90g4NrYJdC5u+/7exvXG9P2PWUAaC3V4Qu90HWdRBrg+HSkAU7+g91fQK9pgLi2LLlHucPdrlyjreT3JI8AZAQAusaDgYDedIjrPX+PAN5JPM28Hl634k//dT/ViwyZaJxbMlh44UcTTVjSWGbvscgnUxdu6RsAIAi49eEM2amBLG/Ayg8XwGutpHN3XYJbePJuyXnRGpsDGIyUyNW/LqYGlApY/7gA/6b4dv/jscCIC4HXGAg1f2bv6VvuUc5a/hIXEgBQdOgyn/oIx4V5/i4DL/Vcfhw7CLDYsOWyr4X36vbrGebYcHzl1/9Gukm7Xsq1GTibsCLUwqel+2OrXpdh9fZs6/d0DIDrGODJ8/tT4c7wOSB8Ka9GgC8gcObzxVCtI9v95z6+Il8dIEHTrqAFbW2wHC8rVx8N9cE7/pUCrm4XnL/xdfaP7+M9a3tpKqQl2WaNJc+g1Uy5b/jjPr+Mo5Qxlvt55AJ2GiAW+cE8f6nrtcA0QInKpNUXbJG8jvt9pGIKUD+VWX02aLzPWl/6zOsGaFkGzuaYRcT5jzhSaYCj3vkvDfCJ0X+cEfDU3+9PhdvDZoEwZlHAAYK3xy2Fjt1nMhWTOwhwlg8mI2h6hfP9Nbar3gUCcFcvJft47o+AQeqxRqfNgFzzz/cpu6xtreU7/DKO7oYyPa87HGVnKKD8Y5EfdO/7ug8af1mFgI75d8yBPRLc9Y+312VWn5HkMdca0LO0PCpLI3F6BotN+FLZiwZ7EsreT6o7WP6WsXDmPQkvgDsgQI/AR7NAlFk10NMjgOmCw/vK7P8dMwXKrDpNAmdyENT4hAhJ0jYbrqekAp7re+sNgBUDsWwwfkfqgYGBLXTaDtil+/AYzZsBc73Hzdnk08D6MrxKvZ+//0Lm2HCM6AnAPH/0BvQ4d975D0EBuv2ldv74+wLvfeP3/Pr8cVFyXOQBUNY+ufhViWcrL3yORwAfKnExo1wj4mgSYJqdS/C9PTdoHwt/eaQDPrX7dwcArtfvT4V7H8+FlAlLAvIIfPX+PMAqhN7G4/5eWNsZUGnr3wQCTA4C5v8t7QVwGXY04Jjeh0V+8B++ZkX7u37nel545YFm+c0SnwyVt1+BChsuQtnvz0Kp5YlQYkE8FJ11CApP3gMFx26D/KM2ASv9F+Wr4oS1fhtIpQBAs21BaAYUQL+D3pelAQDS3Ci2wXjzcHyQwWITexpvYulDXflGbpQ0tLXbxcJxqXgAl/F3e745aBrc/2xBQCBg8eD5skBA1q4LqAKXyQEAdu9jle11Ge/0PmN54Zp+thYOlr4pPv+YZHS/O3hmvcb+IJ3iQ9cVsPjw5ZI6iTV+1mclRgTWDrjnxd8kx1T2h3MEADSqiyy82DWDlRfaBEsg9XKfytuvynKbZYuZAgPfngIn+8uMC3ADAhgfII7zP1Bw4QfyQEDeYWtJ8DQqeMGSg+jjAvwpSLvwAwUBfwup0OiEqEk+k+rpwTKIvj4rOSp0JYEx4j5397mSBtfX2H29n7vrHOh6+kxA3o2ev7ELC+E9y64hABAseff3PlZeaJHBanPU9feHZvh+vk83yRa2bDGx0OetKX57BG4MmgbJn/vvDZg1aJ6ssZVcZNekcjYD/2hljh1Oi4CGWunHX0Iq4LW1Mk/PceTow66h78sgst73t1COUkcArutg6V2pwkCs8Xt+htdqfyQhIOOPY+p+jl1YCO9Xbs15zfKIJ8+Y7W+LPfnNDJxNrGC2icuZLzaxyPKOPEPrEqysMbHQ/60pcNGfIEEsIjR8tt/lhIe867tioWs82Eq4yu5/SQDJEwDxd2VEBcpECej2x0BDOXIUqu9ItfR2yYg/z1iW12WMQ/WMBjtXN5lBwYyYoVzvzIa2B/l0zUdOHYBya38DjMMIP3Abquy6Blh2udy6C1Bm5WkouSQBis+Lg6IzDkKhSb9AgS+2wusjN0KeD9dAroErAUFc1i7zncc4GVtMhaxvz3N+jtcJFV8Z6r52oUyG6nFJeQw1KQWVfYWNlyBjy2mydtvuiqRAy1iY2W0qXHdz+UsFCd4a8pVfRYSECcugZRfpFEEUJlrf9MWEGIF+eE6/6MoDv4L7PPEABgZiwJ9Wz/zd14lV0ttdVv157W+hHLVAQpdTZ6D48BV+6yXXXPHMP1C3v/uccByua/p6DgtAf/q6lut9CnRWSJ/Z7+bMELULnud44aG78NDr/whcYrEdXpUooOFiTM/nN9vFwpG+8uMDbgyaDo4vFsoOEPx37FIo1VYaoCAKpzX9b03NTIuWJ0XAkr1SxYLcjT9+F/P89ZTqh7vJ/2/vO+CjqLb/1ff/vfcr0nvvSFU62VlU9Pmez2dNpPdeFKQootgBFfCZ0HsNKFW6IB2kQ8jOJqQAgYReVJCavRvg/D9nYcJms3NnZuvszPHzwdlsmbn33HPO99xzT/GUR3/+xlS6Nnttfu2Y3cEzEK/f2nYIKqlIEZTmjal+0dsOB2wOakoBS88O9LXkgB9Ip/m32b3behn85TH8TxAdv5lZKSrNHTvvFWzNTw2UY3CMD8DiQZ5dBOU9AhMgW0OWwO7P5kGhaH56ILrSBJuDBMY/gTEU/bBq36dZOS5jIOX2fcBOfrjDx3/4Gt9DQwG/E4kV/vAIr3g/+c6ecvIq9375/tpa5QYC4NXeo2NCMjw79xfAssHl+s0CPKrAf/i6xkeLACv8ddRY5EfNszuLKQE1suRoL/d+052/G0omlXAosJ87L7nAH/9nEVlKYG9uvN1Ww03n/VIoz7eNA7vatMEh4zWlCn4xQPlMEM/baI2Nx5e0pvJrajlyx9UxE4/BSg5cDGU+WAHlP1kLFUdtgirjdkD1SXsBq2eil++pWfxGOZUHaS+UowZEI/k77Q4mhdUAaLbnGuk0Hzc1Vhuz5xoAgujcTopEXpFItMFglpozDkPhTsqA681qLRMTC/N6qzwSGDIeskeqOw64OXYh1G7LbyWMuyFpHnRVXmuikblo1GTX71ww86VSXiSDu5qxt9qdyKWZNx0YqPdKDVpK+sxH8EfdZrU7t+QaAFY7+4EUnnqFh9UCa04/BEV8NAQwU+CKigDBq0MmqA4MXDp8tqIwPrMmk4TGD6EhGVEvI5FGq6a/XuXKD561qwFFM30nFBUKvRkM2Lq50S8XSJf5p8vicw0AQWRjIk1g9TDeqITbLhdi4Q7KKXmejPx6+1g4rSJd8NqwyZDz3SLFwEDsGdCy8ySuEkP3px7oRmMwLpBG6to23XONKztYj99M4K5mrq/9vJ9LM0+d5+/fmNpZbsRaaLL9Cukx/8AfBDsbnWsAWGyOdyNVcPUw7uYHbkCVsds1pww2bh0LSSriAm5/MVvRAMAmQqs+msMVSMylbbbvTxIef4WHfm84HsJ6GTyAohiA0/kMoJdX7ubSzJ2emLpXpMsMKNZrHmAEP7ZdRzCvOPIXqDxmG1SL2w01phx09Wmo+2MK1F+R4erf0GjzBcDjGQzq1IOuN8oYLKKzb64BYLU73jDKxMI5DywhjAUs3Blf6XXdVnGQomAE/PnBJFUGANYGUEoLrL2AggHDySP0bH16P3BXyZPVasPi8wGgml2ykb/z9yXbOTT7Hgq0nkTArdPNgtXm+HeuAWARnQ1JMQVIMdkYYBMStHh5CsX9s2dax8GxgfwWw55tguX+jh08k/vc8p+tI0tap0JJMhggGfRhffFM2V0mPV9j4R0jg7kvc3tuHr/WQtGuM0nX+MCLIdEDWAVQ+q/ZQSgWkofqlRhBGBe6rTD1yFORyP3dpE0sZMrEBGAHQTnA93w/YxQ/9xkDaCxUE4AUUxB4PpJ1SMOfz3Bltc5XS8kAOJ/3GKDJ5LVcmlHmUfgMWiVZbJwAhST8d10Fkd1W+hF9rm1BMW2wauyvqjoLomHwVodYr+WDb306XbUBgAZB4/b86oANNpwlACQAJB5w44Fn1vBb2z7z7QoyADwMgPpjVnANAErV04YXIcTX63nAH/8QRJYcwgGYSvnUW35c9ZHAf3rmrROgJRVQ8gaMeJdfp6DWHJup6E98rVtFpBs+xKAzOe8cvt/oP6vJAPAwAGp+zu9HQC3JdSt3id4MgFWkKIO3YI22XISiPfhR+qhoSkbH5mkrfOdLdRkAEvjjdbVCNkDlMVt1o3iJ54LHc0Rb9bSt+2Mq1wBoNnEdGQAeBkDl9+dzaVbhy42kZ9y8THqRR6udLctnAFht7Du9DNCo48Bc4+K9+UKDRkC/zg+8ADc+nqrJ9S8ZAakj+c/AkqhGpTHNSz3oEa0e0arWHH5VuxazN5EB4GEAlO3HDzjG1GjisUc8phdaWGzsm/wGgOjsp5cBGnkcmIdfvA8foItFx8HZoRMhZ+xCnwyA22MXci1zV3MgHVqmRl53mpv+FKH7mlSftI8rM5jy5kukvJF/U7wLvx159Yl7yQDQoZ612p098xsANsc/3AWCXgdPYTXZ8RtgND7vzPGHoTN9An/JC1AiJk72/pSeE7y1JbmJTNpicyCePL66fi8ZAB4egEKt+f1HsMESyYP+5KGFLbtlPgPgOXt2FVqs0C1WnYVHuQrnw3e0Rf5LwC9dq3GEs2CbSSSYOrTMSf5CJ3+etK7w1UauPMbsPEIGgJsB0DvjJJdeaExhXIUnnenv8PG4RPvm9jvl8xkAjwE8IYjsjvQlugZ3oTAXn+cF6N93ml8egPKt5K3zgm2nkGCSAUA84MYDZYev4gJah8PJZAC4GQAdE/kbGDQAqPlYcDHER4y++RjA4/kNgAepgIk+3pSUiZsyUUPD2vH8XtqjBs7wywAoEh0rq9AKd5xG66VxvdSsKX1HlwpPFa+Xeo9fwrt72jEyANwMgOidh2X1i3SU0njrJVW0J7kJqdwc9Ar++KYgskW0GMFfDGw8UqgdP4Bm+6fzfDYArn3LDwLEphy0zsFfZ6Jx5NC4aNdZsoBWIDoO+p3NIgPAzQD452rlRkDUwEeX/D9P1gCw2tkIUlrBXTRsIVxyAL+ABlbyc6poASyd93teD37OzzKgLIDgrjHJUGTRF4/jsFOmtHP1vJbsOo3A3w38MbPBumCTLL2Qfti6V7BFFh+YQW6tNscwWQPAYmNvmYEI4Zwjtr/0VDCefy/5cI7Pu380BuYPm819RvlP1pIHgI4AiAce8oBSK+AqQxeQAeBhADSatIarYyjTSKfGj83xqqwB0EJ01AwnOBr92TWmHuQKDRoCz3WaBNjW13NXr+XvIf2mcZ9T9ftdpPzJACAeeMgDDdZlceWl/ujlZAB4GAC1v1nKpVnJdxYRf+lQx2C2n6wB0HoZ/IWaAgXHcqu/MkOxKVDJt+MgfeQCv8AfDYW67fjNgGrPE0k4dSicRjeA9Tq/Oov4Ee1RU38mA8DDAKgyPJ5rAJT5cCXpGP3pGMwAeELWAMAPLCI7oFdBjdRxNf31KhTuwN+V4+5/5vuz/Ab/o1/xz//xOU22XyHh1J9w0pqEaU1qTDnABbOXlu4gA8DDACjVdwaXZpW+3kL8HCZ+lsdJx24u+D8wABzT5G8QnN2xkZ+HLYFLDeanGCEo9+3rW91/z6OBr9/jC2bR7rNJMHUnmCRX4dQBSnE5b245SAaAmwHQ//xpKKTgZawxeT/pGd3pGedEZQPA5uwTTmE02rOrxu7iWsoI/i92mQRYv98TzLX+nT1uEdRsKx/NjM+qNHozCabuBJMMgHDKfcmBi7kyikVvglXTv8ex4/Dyyt3w98U7oP2hpKA9J5Dj75qexqUX6hmscxLONaVn59cpFtHZQ9EAsCY6mxDx8hPPF5o8veoUPBktX5MfBaVO2wlw8Zt4v8EfjYWlw/nR//i8eovTSDDJACAecOMBXkXOgjHBqwGA/QUKt534CEyjY6Hx92ug7+lTujYEYvYeeTTmt7wXHHtmdSbxmBuP+YIfgf6NRXQ2VDQAXjkBfxNE5gz0w812v6iDN4FXXATBuFhMLBz6Yn5AwD9n3CJ4rpObMvEimKjosA6B2daC5hsYg9aIdGy2508umJV/Z3ZQwBhLCxdu7T1Yt9F/VgflmYHyAvxjjbJXExueGZFfInhODLFd0QDAL1htzB7BE9UF4yk1F0EDYOpQ/4P+pGOCHz9U3v1TYA4BIcl1Xh54enUm1wCoNyo4KYD1v14u+9wCMXHQ9Wiabo0AywJ+4yT0elqO3NGFHiZ+z+V3myrwxy8JdsdMIlwu4TQzcr2lx2SFG4Ef/3XuNSUgO380AG6MWQhPteGf/T+J7kWqza15LUkOfJeDSKDdU7MSuLLaYvamoABxhXfmcJ/7/PwtQXluILwAT8et5I69cKfpJGe6c/87pqk2AKx2Z89IEF49jhFd/1hrXwJ6b1c898d6/dLu3d/rlwP4z8MxUF6usYFMj7IQCWNCr5g3GZXee+3n/UEB4hofLeI+Fw2EQIB1MO5R/fMfuGOnIkA61DU2ZzfVBoBgZ/UiQXj1OMbKY7ZxhaPgW7Gw049GP57GwqEv5kFRhUBD3P032HCWrHKdWeV65F+zjQn7Ykhg7+3aKTElKED84o/buc/FsbQ/rM+sgLID+ceN5UasIV2jM11jSWK1VBsAWC1IENmfZlMG/s634cZzitX+Rrw7PWA7/9+/jXdlEXhTXO7vlf90HQmkzgTSX16j3/u/y8KAWF4TIAzS63cmMygGAKb/YYaBu5x6vm6uwwqE/c9lQbEu/E6mlcdsJX2jL31zTbECoKd1IIjOraRkNCgZG1Ps8tekw8SA5PtLXoB2PfmCiAqlYJtJgM1OaC01rKW+hJfWLkjrodQDoOoH8UEBf8ktX+sTflfQkt2mAQKu9H09XHtmKpc0rzHtIPFskHjWFz1uFdlGT3xX/Fuws9G+PMysv6mzkF9PvEB0LOz5bG7Adv8TBs/k7h6k3QQ2IDLrmtC8yejh8UDN6Ye4MtR88vqggu8rq/dwn48y/PbOhKCOQatR0TbBrjjmuj+mkM7RkQEg2NiXioDv+QVrkuMVnvDQZ4+UK7oSlXL+B/SbFjDw3/rJXCisdO7/VqzLI4GliGmtHq0V0YJoIfFA+c/Wc8EsWAGAEuj2yTyVtxCQl9odDb9bpSsD4JVNe7k0Q6OlwfrTpHN0ZABEJTpe8sR3xb+t6VBAEFmOJCx0lVecWPda2nF7u1ZpPR7wvF5y3ftzzRi1ACq0Ukj5Q9d/28lAxTjk14z4mWiDfTG8yav0XreU9KCD79PfrOCOoUi7SbqqDNhiMT9rAmmHzc9IvnQjX86n7fB/ioDv7QuCnR028kLizr36xH1QvM98KNh6IhTtMQfKfLDcVS+/xtQDUPeHVMDAvub7r8syNKb98UqJokDMCkCXPzQaro9ZCE07eK8eJikt1zU6FsgNpxsBlOUdI8uW3ueGxnEemfHYfZfqPj3o4I+eAGw0xBsHfhZsT4TkkVBzbTBpNXe8Bd6eABabg3heLx4AO9vnDdtVvSeIzu/1Lsi+jg/BX6kJiLtgIshjylC5T9ZAlXE74KnZR6D+igyoMo6f9te840Rg4xb5vfvHUr/tVQT94Zirfr+LBFAvAkjj0CUv1pqTyAWyeiOXhcQA6H82C0p0mcodS50vl4RkLGoMgOpf8msA4CbKV51MvwvKpmWMKrD39iXBxt406qJU+U45D9fdAPD1NZ7X++Pyl347fegsrpKQxld22E8gkAVOSogMDy4PYGqsJDPeri/8sC1koNt0wlruWAq1Gg99Tp0M2XjkDAHMSCgzkK+H0INqVMyIxHlZbY5/e8N2Ve9ZUqCoILJ7kThxpTEX7jSNK3TelILW917uPDEg4H985AIo+TY/ZxjHhtZ38wM3SAAJ/IgHeDxgY1C4A1/+g1UAyBu4ttknKuqiNnttYTcA+pw5BUU6TuKOlfqNBGUX76s8321pg8KqwF7uS4LIEpXANBI/x3N/rYCu9fu7PvV/9+/8bhH8owtf6HBcmO/faPMFXxmFfscDDPrMUPyBcT08WS7VbVrIwbZsH/7OurM9OBUJvRkkcu91Tkvl0g1pirFTkYgHBh3zQTlcV/2+ILKxRiRO9Un7FJmZpySUPvtXxwkB2f1/pybfn4L+SOmQkaKaB5Sydhp+tzLkBgA2/5HTKVWGLgj5eLwZAa/uOiA7RmnsdX9MVb0ORsQVXc3JzkarBnq5L2IOoa4mFSBFF5VwR1MQoMTgaq8bh8302wA4+tV85Tr/b8VClbHbSOgCxBdG5HWaU163LDar4cnxq+v3hRxwe5/MgHL986clFu0wGTqL4d/9o0Hw7IqtXLohTdG7QvyWl9/CRQ9LYs7zcriu+v2WmfDfgsjuhGsSwXwuZgJgRL9SGh9PWXj7rHHrWHCO8T/v/83ukxUFrlj3OYDzCCad6N76EGhaB//XoenO3wGbY3mTW3yvQEwc9DpxIuQGAAJsj/TjgN6HEl2mQJH2E+GZMSuha1JaWMbizQPQYBo/BRDpRzFI/vNoIOTcIrJbr5yAv6kGet4XBdG5ORCD0vM9MNcfO+Zh/jy6CCuO2gSlhy4DV7EQFVX33BXK9L7+B//9PILfL/zR8+Kg3MerqdsfeQDICFTBA1ga+5Hs5DcEqgyZrxvA9QbC4Xqv37ksqDGa37sAN1J61vEmG9s6HqZr+sxqcwwzGfHyMHLU4dvQaPNFqLf0GGD98EJtpKC87/Mpk9IxsXBlhH8d/xzjFgI2DuIpKm+flflgBTyzJjPP2M28bjR3fexG9LQOJQfw89ifj99KBsD50/lo0CPrBJQfwt+U4NGKntba1GOxO97TBPK8Lwt2Vs/UxHTbWTy96hQXmPt0joM7X83x6/x/8lB1jX68GQH4HhY4QmNFsBEAEN8SD0g8gCVqee5//KxLsn5c7uHa7Xt7bseMVCjeld99lNqO60fWrHbHUzxM1/yZRWSnJEEy87XyN/LRugi+W/qPB/bNPJ8NgJtjF0JlFbX+5cDf/X20yOsuTqPCQG4GnJl51+xzrzGFH8Wul2h7bwAc7vdijopQQOEotMp/dpIHQA+6xsYyNAO80g8sonOS2RUI7qiLdpXfnddpFQt/DB4POWMX+mwAzH6fnw/sDvBqXxfvPf+BIaAH5tTZGCxH7sDTK09CtfG7XX0givWa56qpUKDNJFdhJfSmVPp6M9Rbkg5Rh26RgtPZ+qnWSSi7Pfgu7FBW/ws3oGt9/ks7d3M9n6iLas1NJPnQhXw4v1fCc82fW+yOf6kWNl0QIfDuGKUCIu93iYOrQ30PAMR6/43bq2j249G4RK0hUHNGAgnoQ95svPUSVBy5SVMGCDY6qfDlRsDfml0WIm3+9X/K4AIY7m67pQa/+59W4NXD93udOQlRS3/h0g91EBrSkcYXhhyvPftFzQCv9ANMKRBEdsOQBFNpsCgVD9rcPw7+HD7Z593/BhWR/yX6xSu64uQMAmwRjAGNZl7DpruvgqsPvII7U46Grvej46DciLXQbM81U9MykvgIM2V4a1p9WHy+wDc9gK8extD5ZDrUm/QTl35I2ya7/iB5UIklQZSd63VS4K9KeO7T51aRrQziwHXPPGWHyffurvh2LPw2eDzc+GiqzwbA6934ef+YZoPth7GVaeVvt0LBVtozBTDV0axrWGdhMqARxAMCLZ9hPXlsGW1WekbKvNFQKxAznrvuL6/8lQwAL9H/aIC0Tk+Gqp8u5NIPS5FT0HHgvc5aZcwisqU+gbuaHwk2ZzetAzLK97HHdcG28lGwbTo+OP+/4WMK4IWv46EQp0AJAhOeU7vTEy1uDErUYgg8vdqEaYI2B1Qeo1zFTAv4u3+3aiy1X3bnS729rj5hLxe8inWcDH2yTpEB4M0AOJcFbxw9AqX6TufSkFIAww/+D+Wukxos9+k72FlIEBnTm4CHYjwNfznPFYC4nuNdAYA3P/GtBsBMheA/3LlisSJvc22250+o8t0Oxd1twdYTXR4Eb/cw7Hs2xwOXv49xE+5Az3uNHhnaAelGCebKCQZuKnX+az5lPYG/N/A/fxp6nsmAV+2HoeDbfA9KhS835NLcsLok/O59JRqzFklQxCdwV/sjM1QF9MbAtefxW3bufifOZQDc+nSGT0cArym4/yuO/EVp8V0GQrXxe2QD28y4U1VK2+SButbPzEhfb7Kip/eUGv9g8F8XeyoZADIGAOb/v7BtF3fzg3KCdNbTupt0LOvV4rjP37OIzr5mJG6VsdtlhaBYdCxcGvzAA+CLAXDl24VQWCEo7Zm16l33uOvBtpxFOs8AjFzH1seuDACTFQbCM3+tIO7X96Njod7SdFKEOtkpqdn91/p0MYG/DPjj+X9MmgjNftyoKEf1V2QQ34ed753dfQZ2tT9snnyrlCCyu2YzAsoMXS4rBFFtHpz/Yw0AX44AVn7Ez0/G/GVyL2tzL2PTF8zlVwvodXvPhI9nbIA1Ow5CSvpxuHDxEiQdy4IlWxOh1/froHhrdemZGKiJmQZmk49AzxeDXavG/uqqallq0BJAzxa+p+U51Scqt/x+c/MhMgBkDIC+5zLhteQEqDtePvhZki88htSyNvRdbfpMBb1yWiZAcbU47tf3BJtjl4oBGYohinaVL9DTpdMD9z8aADc+nqb5COCrgTO4QFX1+18NRctQ8E7Zj1ZxaSoprsqdp8C0n3ZCckoqHE198O/CxYtw5cqVPP9SM85A13FrVN0T6wuEYo5GfQYWZyrxbv6a/ejJkouD8aQFGgtKXT4rxG7cAAAgAElEQVQrvDsH+p/LIgNAxgDocuqYywCo9NECLt8X6TKD+D38u//NfoG6lh9bRccAT4Ez9N82h8uVLoGG5/Xjro8MgOvDp2g2AGK6y2cX4LOowIY2a7nBuiyuwpLWr8XgebDnsJgL/GgAHDtxIg/wexoCs9YdhKKt+N4ATDlrvPUyKUUflSJmu0hr5HktNWgpRCXcUaStmqyP1zfuJ/CXAf8H6X9J8FpSAhTpwPeklR2+SnE9DI0PPvJ5IGlisTn7aMFwv777bCKUEESWE8gJ6Ple6N7yVETuf0/u9cgA+HOY9kJA1dvIR9gimFAJWm0GQNnhK7nrhWvXbMAcOGRLygP+aABknT7NNQDQIFi8JREKK0RFV/yCoqJ9lWmlkr2upjOceBasdaFUt77yoHnwzrn8Xe/0UHhHD2PA9r/o/lcTAFhtwh4yAMJrBLBmB6GYX6Cu9cdWkW30VcAj7XcNN/FTAJf1fWQAXB06Ae6OW6TaC/DHt/wCG5Rfqw388fxdSfkXbzMBtuxJyAf+aACcP39e0QBAI+CL+du4Roar6mKCuasu+iTnNsbv2PcwnVM248LmAKWWv2gAvrmFzv55hkbXh+7/RnPXcfkcaYkdUn1a6/CCpnHGbGerteK3398XRGdnsyw6RuC77/g9X2/o9yADAGMA8J/z2wWqDYDUkfO59y43Yo1xGDUEAo/ZDp7r4/n3Z7M3egX/lNRUuHz5sioD4NLly9Bs4Dzus1wtmUMwZ6PJYYn+fKNYWs9ac2z5ZKPmjMPcNcHfVh26gFz/HNd/rvs/OQGqfb6IS0/yUGrboARDVq0ia+s3oGu9wdN2+D+LyG4FY0J6u2f9lfxGIrv6P/IAoAGQPXKOagPgwOd8EKk0enM+Jac3+uhpPGWG8WuWl20/CY7Yk70aAKlpaarAX4oLWLrNxlWO2DhIT7SJlLHgjlKpdC8COX7HPf0MMz/UlHp+e+cRMgA4BkC/h9H/eARQvNtULo+ThzK8BgBiMGKxVvwOyPcFkS2JFKXizzgxt1vadXi7Hng3rwFw+/OZqg2AvQoGAKZC+TN2s/1Wqepbz3E/eQV/dP+nHTumyQBAL0DVrtNkeQNbR5uN/oGab625fONKkkMEfKzSaUnMVuX6r//1cgJ/Dvjj7r/zyTTX+f9Lu/kllHENSg9eCo02XwTB5iBeD4+3Lz4gYO7LTQSb49VACbye76NkAPz6Tt4jgOsfqc8EUPIAYIlfPdNGT2PDpi8SMMhdp6zYKWsApKanazIA0BPQf/x67jObbL9C6+ejYqz6vXIFOlxnLHhVYaRyu9oi7SdC97RjZAAoGADRqaLLAGj6wwYub7vLGBpipYcuc/UrwaylKIp/CYncW22Of/iC3QH5Tetl8BdBZGf1BALBGIvSEcD2/nkNgKuDx0POuIWqvADpI/k5thU+Wx8SRgoG3UJ9T4z+dldK3l5v358oawCgF0By76u9Ltp0hPvMWnMTaf18NACw+FWFL37m0tfbGsu99/fF2wn8FcC/5+kMF/ij+7/m14t9pn3BVhNcRZxwA4OxMM33ee9jEmodYbDnnUUMDgiY+3oTQWRjDEbUfApbKQhwdb+8RwAYB+AYNU+VAXB9zEIowOkCWKzX3HzjMTq9fZ1f/Z/4sRoIDAn2o1wD4KKXIkA8Y+B45lkoyCnj7EpZ8xUA6XeunP9Sg5f4DESSMVD9w4WU9qcA/uj+b3f86AMDIEn5/F+iraprdByUHrIUGm+j+hi+6jfP31lFNtJX3A7Y71qIjpqCyO57Ds5IfyulAc50qwMgZQLc+kx9U6DabeXrAKBwNdp8gYwAFWCo5KlBWopHU7gGwJkzZzR7AaLek8/kKNxpOpVxVrF2PH2B1f+K9eIHy/JACF3/1PBHueYBVkV8/egRlwHw/Kadfhtd3tYEqwZiG3PeetNnqgIL7wvJjmoBA3J/biSIbK+RF63ZPn4hoFHd83sArr0/UXU9gO69+ZG2lb6mTAA1/PXMan66JiqkLXuPcA2AjJMnNRsAQ6byz59dQVJ+gqCa+Rv5O012/AaFO8oHXHoDG+m9f6/bS65/Fbv/LicflP5F93+9ifxsGom2vlwrjlLubGpkXg7E3Cyic4c/mB3Q31rtzp6BmJRu72FjULDVRFmLuHvn/AbAg2MAdemAS4fPlr03Chh29KNgMmWrGGmkpJCm/iQfBIgxAL4EAiqlA9acmUA7ngAYQA1/PgMFW8vLobe1bxy7msBfBfij+z8m1Z57/l/mnZmKsuSN3mrewzWkrAFlfcbDQ4vd2SWgIO7PzVqmwJOCyK7zBhzpnxXrOVdWICxtvBsA1z+aqioOAKsBFuecI6NQlRy42JXqFOl0DOb4sUa8Uv74u+PXcD0AaAR4awbEiwPIPHOeWxq43MeryQAIgAGAvFNlHL8CozsAVf0gHvqeziQDQIUB0Ov0yVzwf2n3HlXVGN1prel1dBzpMv/k4VrjBPhffzA74L8V7I4pwVTu4b532Y9XyxoAxaLj4OKgvJkArliAIePBOSZelREwuL+ye7PymG0EJAqCg4VJeMooauBcRQNATT8AT4OgxZB42ediVzra8fi340H5rzH1oGpgKttnFvQ6cYLAXwX44+6/zbHkXAOg4ay1srwsyRZWKMW0v4IaWm5Lv8XW6uHW5xH9fJtzfMAB3N8bPpvI6hg5GLD6BH5RjJ89ygHnBgN+Ol2VAZA5Oh6KKngBUICqxlFhIJ7wVv52C1d5FYqJg4OJ+ZsA4c5f+ndcoSOgJ/jj3x/O3Mx9bsON50jpKRhvvHV1gf/DPgASkMhdS3abBp3tKQT+KsG/99lT8NrD4D88/68wlB9wiV625gduuPgZCzBh+m3N6Yeh3CdroEin6Vw5KNBmkuv7vLWmz/jGslVkdf3F66D8XhAdu426ePWXH+cy9gduLYEl8NfqBRj+Ll94JIVXcfRmwJ7pRqW1P/OquziNu05Iw5mrduWCvQT67ldXT4ArVzQFA67alcR9LgKYP/My829rLbCr3vmX6DIFOiYeJfBXCf55Uv+SE+Bfh/ZDgZg4Li+XHfYTl5cxFqf2fDtUHLkJivee71o7rNCJXTrJEOaDu5Kc6yr4z9OKsNpYR6UJROrnmIrE6zLXpE2sqxFQHvB/2BzoxohpqrwAN8cuhIbt+b3mJSOg1HtLAGufRyo9gzVuXKcnFTwpfb9fxTUA0Bg4d+6cJgPg9LmLULSVfDon9igI1pyNfN9n1qjrC4ByUar7dOh4hMAfQV3tvz64+09OyP3XeJ5y9z80yIzMc3qeW1ga/3gCvdzfr5yAvwmi44qeCejP2DAQTwJgb9f9HiWBc42BIeOBfa2uMBCWBi4WE8t9jvRsPH97atYROl/2cC0rdZNr/M5sRQPgVGamJgMAjwH+/uEPsuuGpVLRXeoP/5ntt832/Okq8yvxO+9art8s6Jqcrhr41AJkOL7XLSUdOospgHn5wX5+hxMpueCPhkCZgbNkeRjpjxX+og4+cP+bjR/DP1/npTop8Fc5/NXF+1idKPyE8s/NIjd+pTiAAV28ZwOgIfDnsEmQ890iVZ6AZcNnQ0GV550olOhmq/tjCoHLQ0OgyrjtfCUWHQd7DotcIyD9+HHNBsAnc7Zyn9tg/WlaIw9jTU7WMGiytMoKgJUHzYOexyM/4O/1DfuhXP9HKcGle82Al1f+GjQjALv+SYV/EPxf2Kbce6HsR6uIh9XycKC/Z2df6ALkeYN4NuF2GUFkTFawA02UEN5PqdZ8mZhYOPeel2yAh0cBWqoDxg7WnodbatBSqLf8uOkrzynFa6DRNHn5Dq4BgMcA2O3PW8Cf3Hvr9xzlGgDVJ+0j5alSXp+alcClpeQNqDp0AfTOOBk0kAz2Dhzv3+FwMtT4SD57peXCLUGZX8eM1Dy7/zr/WaZIc9poBGdzqQIvHU1TbpXmYa9uPhNEtlDFhCJPGdoYFO0xhyskk3rKewHQE+AYre4o4O53i2DK0FmaPAGSUizeZ74rCMesLueogzcV6wF0HyvfFlgKCDxz9qwmA+DchYtQoq18oRpKf1KnPJv+ehXwyETiZ7kr7pYjOdUPx94kbg0UfFs+dgTnXrjdROh3JrD1DPqdzYI33CL/X7UfhqKdJnFpjumsWGvDkLpdpWEaxrnP1Q3AKw0kyu5sFEZCBZVBa0w5wBWSmq1i4by3mgAPvQBXh04E55gFqo4C0AhY+dEcxSJBcgoSjZX6K04ElR56XeeSA37krlP9PjMVPQAnT53SZACgZ+CVEfJxIlgBjRSoshFQ8QvlNrRFO0yGrklpQdkZB3vXj2COnQmLdVQ2ciTZxpiAQI6r3fG8Z/+WZZu48oLjqPzNFlPqEl3oOJuzgRLu6upzo6YEYl8ADISRBNPb1VtvgNyAQIwH+HAy5IxV1y4YjYDEL+ZBo/byO0tvY8h9LzoWqozdDhabw1TCWzWWf56JHRh3HbJxjYC09HTNBsDI+B1c3sB+BbpQKDrd8TTadEExi+PJ6Fh4feP+gAJiIMGVd6+YHQlQ4R2+FzFXdh/GAWH2USBjHHqfOZXn7B/P/yt/xG9LjmOiFD5l4zU4su3cpitwVzMYq8higkOMcC3Co+dii1dPIXX/u3RMLBznxAKgMfCgTLB6I+DG2EUwoJ9ytUD3cbi/Ljdirami0J9eeZK7Rkib2MXbuAYAHgVoLQu85SC/DkG18bvJAOAYH2WHr1Jct8axayIO/LseTYNnvl2hODd3mZVe1/5iSUDn2zo9Kc/Z/z/37VPM/S/RL574lsO3wcS6FnbH62owV1/fAXjCIrKUYBImXPdusC5LUZB7duLHAqARcFNlfQD0Akj/tn0yF5p08M0bgIU5wkWzUD836vBtRU9Nx6+XKxoApzW2B7546TKU7SDv2sXe9qGmRaQ8z9XMSaGGQ4kuU6FXRkZAAZG3Y/f3sz6nToJl+gYopOA1lMDe84rzDaT7v0fmiTzgj7v/2t8vV9RntebYiG/DYQDYWepjAE/oC9xVjsbIXQKxDransHr+vaiPGiNAXalgyQDAq2PcQpg4ZCaUa8Wv2OU5Hvy79jzRNIKMWRHeaCC991SP6YoGwAkf2gO/8bk8b2Bnx6hDt0yzBlqMDzxjltZG7vqvVbsjA/zPnYaXV+6Gkl1999o9NeKHgII/1hWIThXzGACvHD7oCjKUoze+X6jdFOLZcIC/yEBXXf9U4n7u1xonwH8JIjujRQlEynddXoBofsGecjFxkDRAPi1Qigu4MQKNAPXHAZIxcHVMPHz73gyo1JofRewu3BhdjXEMkUJnf8ZZbfweRUDZsu8I1whISUuDyxrTAb/5YSf3ufVXZpiC/lrWLirhtmLkP56dh6I4jr+7/rb7RcD0RHe50/K6TO+Z8Or6vQE3dDqfSs8D/rj7f3qafJMzacyVv91K/BoeA+Cs7gv/5KK9zAuL3fGBFkUQSd9VigVAAXqhbRxceZgBIAG+t+v14VMgZ5y6zoGSASBdr49ZCFg3oDKnFK0kzHitMm6HKQQaA+7c5+3t9diFm7kGAMYBnD9/XlMw4M4jx7jPrfr9LlPQX4ss1/khhUszXLtggKK/YO/5++fmblLdt8CTH4u0nwjPL9gS8JQ/HCMW/XkzJTGPAfBv8RAU6zKFT/foOGi87TLxaxgMAIvdMUgGViPnbWs6FBBEdlWLMoiU7zbZ9QdgapenIHv+PViuUZCHYXBt2GRwfqs+RVAyAKQrGgJDVAQKYkeuZnuN7wXAhkk4V8/1cP+7zciligZAZlaWJgPg8uUrUKGTvGItOeAHUqgeChUrzLmvi+frUj2mBQUYPQHcn7/f2LifOwfPOUl/Y5R/g7E/Qfe04wHf9UvzaXv8Ubtf3Pnjvybx6xXHS5X/HgV/hxiX/miZAk9GDtJzRmoR2VchJl7IFGyNaYcUhQgF/fseyvEA6Bm4OnQCZI+amxv0J4G7lquaKoLoHjfqmrjPq8z7/ACnKl2mKhoAx3woC9xqpHzEN7ZTxWJF7uM082usjaBkSD8795eggaMEkv5eqw1bqEoXSMCPVzwqwCMDf5/N+33P0xl5dv4uAyApAUr1maE4XjzqNDNvhmvuFpF9xoHUyPqocQIUEkR2LVzEDOpzbQ5QahKEgl7orViY1UudEYCGwK1PZ/gUFyAZCj17T+UKd7Fe80wh2DUmK+/KNu5O4BoB2B740qVLmrwA3y/jxx/UX3bMFPRXI3tPrzrF5VXM++9iTw0qSPIAVO1nWLHPHdx5r0t1mwavrNkD75xT37lP7Tjcv4cxE2+m5nX9owFgWa5c+Af1mpr1o+8E3EvwZ0sbFI4slFcYrSCyUUZlFExfKthW3uUrKQI0Amb3Vg4KlGIErg2bBM5v5vvkDTj79QIoodDXG0uuGnVNpHk1WH9GUSmPmr+JawBgHIDW9sD77Ce4z8XiTNIYzX5VKtpUefB83YM/gi4eU0iyLnct3HoCCDM2AKYHugN1sF63O3403+7/1aTDULq/8u6fjNSAA7sqmbeK7HMFOI28j9GiMawXQGRQd3GaquAf7PIXq9AvQDIAXNch4+HW5zNVdxKUPAB47dabb5RgDfLCnaa5+huUfGcRlB6yFLAQS4XPf4ZKX2+BKv/ZCbiDxpbDtefbod7iNMACO1gRLFIyCbACIqYxySlkfP+tzxcrGgC+lAWu1m267HOxZbHZgV+aP/Idb32EGRtDApb+gnDzqT9z51H3q2XQJTl05Yu7Z+XP+X9w9s8fJ66Fiz9t4QFAiS9MejXe7l8yVwQb+9rIi1rlO34bWncl92HXOPjdIwgwD/B7fHbtg0ng0BgbsOCDR61F3Z8dkNfRcVDu49UR0Ru8zIcruYq5QsfJkJySyjUC0o4d03QEgH0BOn7LCWyLjosYIyqoMmtjgE1meDz59s4jEWEA9D2dCU99kr8HRcV358DbOxNCOoe+Z/NH/SP4/9t2CIp34xvEuBb1ltIRVVD53iMINvdZkdDyVwJ0rddmB6GYILLruZOVI0Kkvm9zuECRp8zcP3ujfRxkKpQM9jQKsISw8xt1mQI7Pp3LVazuY/H1dSRECdeYdlCRDmt2HOQaAHgMcFFjHMCkn/Zxn4teI8PKgkoZbrrzdy6N0EvVJ+tUSMHTL0/AudPw77V7oM6XS6Dq+/GAaYGB7uSnZnyt0/NH/aMB8MxU5bx/9AYKtPsPh2xeNdzZv6eRINjZF0ZWeliCFtO81AJq/daxsPcd9XEBkkFw4+NpiimDoTAAMEAL0yH1vKYNfzmvuB6fz9moaABoLQt8JJUf3Ebd1ZjrSIknK1j8Rw3g0XceBRN2zEjLd+6P4P+vQwcUq/7hWtRbbs4OouHWYVY7+9gTLw33N+Y2CqLzUriJHcznN99/3XWGxlNs7p8Vi46Dsd21HQk8MAQmwI0R02QDBYN6BPCwUxnOQ/epQjYGhTvwA7ReHbFI0QDwpSzwUz3lg62K956va8MpmDIi3RtLU7vLgufr+qOXkwFw/hG4Kxk6PbMy8nX6Q/DHf7XHyZeoluiO8RjS2tA1lDEQzstYM8dwgO9tQhabY7DRmav5vutQom88V7lJQiddX24XB4kD1KcKSt4AvOLRQPbIOeAc86iaoFIQoPRcf6+Nt17SvdIoN2INdy1Kt5sISUdTuEZAano6XL5yRVMsQLfv+M9tutv4mRg8WcfuiDz+i5r6MxkAKg2Avl6q/Ung/9Kve6CgUqXQ6FhosOGs7mWZx0+R+pnF5njXG1Ya8j2sb2wR2alIXSy140ZPQKn3lnAVnKfyKx4dC191j4OLg7QfC0gGwbX3J8KxoZOhhEKvAs9n+/J3sZ5zQbA5dK80MJNBaX4rtuznGgC+lAWesZYff1Bn4VHd004tv/vyPaUGQH9fsp0MABUGQP/zWRCTavfq+kcjoOIH8xT5v/xn60zNi77wb4B+k/nKCfibIcFeblIW0dkjQMTTNdNikxOlMqfegKlUTCw0bRMHAzvHwa7+2r0CHTvyGxV5e6bW9zB6u+Gm87qmv8Rj6KVQmt/HMzYoGgBaywInH+e3jjZTi2ZpLdyvFb/YwF2XV9buIQNAhQHQ9lj+fH9p998kXjntr2CriYABme5rQ69DcwQQ0R3/5ABe6f3Wy+AvVhuzm4HJMBe9ync7VNUJ8AZSRaJj4RcNRsDn3ZXbBJd49wfAY4omO34DDJJ7Zk2mK/gHm7LUmpMINaYeBHTPVhm3HSqO2gTlRqyFssNWuDwaeE6IDW0ipRaAxGNFOsufxyPdXx6+UNEAOH7ihKYjAEwHrN9XPh2zaI85pla6Skczb2w6QAaAggEgF/SHBsA/9++HIh2UKxRWm2CO0uCSLtDR1YZYqISXhvzcKma/oKOFCLoirvtjChRUaE7jzQDA98rGKBsBJwaOhy4dlcEf71dzZkLQ56u3tS3/Gb/5SYk2E0BUiAPwpT1wn9h13F1uk13m3XlhLQk5nsf339xyiAwAjgHQ9dRxWbc/GgBVP1vEpS/SuGj32YCeSr3JqxnGY0nMed6Q4K52UoLIVplhoaU5oisaq2zxlB7vs5faxcHEnnGw/53xcHzgeBAHxMHKvuPh3c5xUDpGndsfXfdmbEZTa45Nke5Lftmn6AXQWhZ43obD3OfWni+aVvkqtdR+4xfyAMhF/mOlv9cfRvhL7n73q2WZcr1/1DX1lqablv8kvRyOq0VkS9XipGG/1yLJUVUQmSMcCxCuZ2KbWnShYxtQHtgH67NqcbtNKfB43KFE0w+mrlM0AE5lZmo6Bkg7eQYKcAIyK3y5wZTrgfKHZad5a/Lq+r3kAfDiAejBSfdDI+CVhANQrItyxT/0wIRLD5r8udlRtuzKhgV2LRMTRDbWjMyA+fPF+y7gKkCecvTlM8w9N7O7r0i3WVx6v/D+AkUDwJeywI3fla/KiLEJZuR/nHOlrzdz14OyAPLXAOh5Rj7XX/IAVPtCuRgZ9shouueaaXkvzDI3SgtGGvq7WABBENmFMC9IWATBciQbinSbyVWCvgC9t99g/AE28jEjnaU5V/hqI5fWxVpNgCP2ZEUj4OLFi5q8AAMm8qPdsaOkNEYzXTH4zBuvSu9FSiMgOTd9oN/vdToD3jh6hHvu33geP+ZEoi0eiZmJ13Q013NYEM/QoK51cla7s6eOFihkgoF54JJABvOKaT7Yd92MNHafc+0FSYr0jl+/R9EAOHP2rCYD4IfNidzn1pp9xJRrg/Pm8f0z3/5ERwAPjwDQ7a8E/i237IRCSgV/3oqFMkOXU71/lf0q3PVHgF530oqPxv8+wBOCyA4FiMARoUwxFgDTwHgKMBCfYcvfZ9YQ+CNvYeU9JZoOmrhW0QDIOHlSkwGQkXUOCsXIx3xgMJyZeF+aK9ad561HpffmkQFw/jS4Av4Udv6vJByEEj35Ja+R1hgE3PRXc1eglPgv1FeLyA48BvC48QHdhxlabDmCILL7oV6UcD2vxtQDXOXHU4xqPyvz/nISdg9LH6sX8uhnHTRP0QDAssCY46/lnzBYPt6jcMdpptyRKXUDLNxmPPQ/m2VqI6Br5jGuy18691eT8od8X2eRuatPhkvfI7ZZxZwWPkCjeX6CqRFhXKCQ7cKwTLBSH3QU1uoT90Klr7cAuvB5oOX5WYl+8VBvCaX3eOOlSqP5gWeFY+IgQVSOA7igMQ5gyNRfuGvYaPPFkPGfN7qE5T2bAwq25vN2zO4jpjUAeEV+JODHa8PZa7m8JemHCp+tNx+PeWwAwsLnD8YQbx4k93GmQmJ2JUFkd8K4SCERkMrfblUU2GK95oElMds1Hszbr/tDKmDKWJEuM/JVFcSUQqwvUHnMVmiw/kxI5hCpa4TVDiWFKHedvfpXRS9A1unTmjwAy7bzO9+ZNSgLq1LKrQO+32jmWsBa94EOqNPz/fqfy4K2x5NV7fytq7dCwbfHc2mIdCzWa64p63/oRE/dtIh3yvkIi+b6mSCy4TpZtKAAKeajF3h7gqLA1l92TPb5aBjgOV6jXy64rlEJd2S/a2Ra+jI3LGH8JCcvH5Vlv9hVigaA1rLAWWcvQGGOosaSy77MJ9J/U2XsNq4sVBw2D9oeP2oaA6Dv2UyISZNv7OO+82+5eRcUaqesS9CDiLoi0nklUsePHXDNheJ+zLblDvh/FhtLiNTFVhp31dhdXIWHAFR68BIS1iC67pTqLzR7d7aiAZCSmqq5PfAz/eSDPl2R2UGcsxJfhutz9Gwhz8v9KxATB/86tB+6nEo3vBGAwX5vHE1UtfN/afceKNp5sizd3OlZay6l/IWLvzG43bT1/n21A1okOp8RROYM46IFDYBR0bsLZ77X0XGmz9cP9rrjUUk+uruBUMGYODiQmKRoBJw/f17TMUDrUStkn1u8z/yg8Vyw6enP/ZvtQY+MfIYErhN2tHvt6BHolnnCkEYAHnG0P5GiCvjRA/DywQNQstd0WV5y5+2Kozebkq/84ckA/jbHIjob+oqDpv6dUSsElh2+kiu42CI1gAxI9/Kyq8YASXcl6e31tJ92KhoAJzWWBe707SrZ55q5M2DJAT/K0gXXpsLQuS5wfP3oEehxOsNQRkCvMxkQnWpTDf6v2A5BuffkO0y683LJgYsB041Jn4Smta8XOlPFP1+tGMs++B9BZCe8EDWiGbrG5P2yyg7P6prs+iOi5xcJ69X8wA3FXgw9x/2kaACkpqXB5cuXVXsB2o7+SXbtzWwAVJ+0T5YuLkCLjoWXft3zyAgwgCcAA/1cu36F/H73M/9/2w5BpeHy6aTu4F+060xotvdP0iVeNgAh0lHHWmbCf/uKf/S7xx57rIUtu6XRagMg+Lgi+d1czpKSqz3PvJ3hQiSUuQqx5Dv8VqkN+s9SNACOpqaClqqAzd+bLwt0JQf8kDu2UNMi3M/DLpnu4OXtde1xy/LskrucOhaxnoBuWcfhrRR1Zw1q6OIAABqbSURBVP2SAeAC/w/l+cedZgXbToFGmyjoL4x8fV+wZ79IIB4ACggimxPGhQyKUsZMADwKwBxo/Fdq0BKovyIjKM8yGu0CNZ8q43ZwQQc7+G3dl6hoBKSpLAp05vxFKMLJAihr8s5sSumAhVqPh3/u35/HCMAddH8v3fL0muLX8/RJeDtdXYS/BPx4Rbd/xWEqwb/VBCr7Hb5dv0uHW0THtABAH90CKdA4AQoJIjsXKMVP9wnbeZiuDBylMrS4oxqmoj0wegEys7IUjwHmbTjMNTiqjTdnm2ZJHp+axe8LgOtR+7u8XgAEx5hUG/Q+fVLX3oDeZ05Cm2NJeYwXd4DnvcYMiHKD5LNH3Hf+GExJlf7Crt8utLRBYULvAFLAYmOtJUVB17AzuK6A3Fd+iDp0Cwq24udQ1+wxHWzJRxW9AGgEnD13jmsE/PMjfqAbGiS+zsUIv8PqmAXaTOIaSegFeGnXbq9A2uFEKuC5up52/xiw2DrdN+BHo+Afe/dCqT7qov2xtsVTJm0qpSf+t4gsOoDQR7eSKCCIbJWeFprGEvmGSJkP+RkZuLsaPm29KgMgJS0N5NICl26zcYENgz+jDt82tQGA8qSmQmb5IXPgtaQEr0bAm0cTofPJ9LAaAv3OZUHnU+kQnSp6HSNvt+/+GRb5Kd5tKpdv3Hf/NaYcMD3/hF0n29hyCa/oGmAKPJtwu4wgOn4L+yKH+XyJ5h84w6PWAruigi3eZgL8tPWAKiPAW1Dg8cyzULPHDO5zyn2yhpS3yMBVJTNGuawt9rx3B0vP12+mJEKHE2nQ58ypkHgE0PPQLfO4y83/erJ348RzjLy/m/24UVVbX8kAwJ4hpBcCpxd8o6XzcvPkW6UCDHt0O3cKCDb2pm+LE27moOfrcd0wI0NNo6UqXabClj0Jqo0AbBd86dIlyDxzHqxD4rngj0qcAkAfyUfFUfymSUivQm0nAlbC44Go9FmrdDt0OpkeUGMAAw97nslweRvw/tKz/L2+aj/sinNQKlUtAT9+D7uK6lG2TDam+y3sjtfdsYpeB4kCguiYYTLmIgEPotelynf8bABJ2ZbvOBnmrlVuEoReAPy34dfD0HzgPEXwxyZOgu0RAJqdt5vuvqoYC4BrUrrfTHgl8ZAm8H0j5YjrTL5jRip0PXUMep7OgN5nT0G/c5n5PAXoysfPep3OcO3uO2WkuXoSxKQGDvDdDYaX9uxVXeDHxZPRsVBzxmHSDUHUDWpl0So6JwcJ7ui2nhRonAD/K4gsTe3i0PcIXHg84GrN3G6KIlCj0i0YHQcxXyyGdTsPyXoDduxPhIET1kCx1vwAQ8mwqL/C3MF/3tYGMyIk+vCulUfEw6sy8QDu4Kr3100X/QyF2/MDIN3pgM3EascnEfjrAPwFO0tFTPLEKfo7iBSIsjsbCSJj3pQHvUeAr5UHak7np+i5K1/pdb3eM6DzN8th8KS1rkDBrmNWwLND5kOhGH5de+n3eC3/yVpS4l6UOHa3xHbY7rSSe1195I/watJhTZ4AvRgEWNeg8sfqKvtJ88ciP0+vPEl844VvtMp9AL7vEGzOBkGEOrq1HAUsIvsoAAtIgqQPQQrvOtgYlPt4tSrAkRSxv1dXqdZ9VKpVToYbrD+t2CRIWoNqny8CPD/XC7ArjQO9Fg1nr9W068e5Is9QhT89bXAcQ+Xwid4PNgUAnhBE5zY5BULv60lQ9D8WDAjEevwSqATzWrDNJGiw4Wx4jZ4IMPyqjd+jej0qvj/P1SVPCXzD/fmz67dBmf4zVc9L4sNSg5ZSbX9d8axz82MATwQb5uj+HApYxDvlBJH9QWCvf4CNhDVqsuv3oBsBWPqZXLgq+dXmgDLvK7TPduupgXnzz2/coUtPwPObdkIllbX8JdCXrlgfwZKYTQajfgyAq88l36nAgSb6KFQUsIosJhLAhcaoUumHWcib7rkGxfuoq7suKWi110Ltp0KDdVmkyDWscfN916FYr7mqd8wFYuKgzn+Wac4QCJZn4Nl12x508IuOVT0HiZ/wvJ9K++pPb2Bl2lDhGz1HBQUEkc0jgNWfoETqmkQdvAkVR20C1fnYbrtQSXl7XrHhE7V69o1Hm+78HYp0UlkS9+FaFO82BRrPXx+W2IBXjhyEJgt+hrLvanf1S3xTcuBiwHlHqgwZd9yOGSogib4SSgq0TIEnLSJLMS7T+aY4iR7+0a3e8uN+HwkU7jQNas2xgWBzkDLXsPP35F0MfkNaSgCp9lqi5zRoMHMN/OvQgaAeDWC7XsvKLYBZCYXaqEsB9TYH7E+Blf3I5e+f7HryT4D+TnraDv8XSmyjZ6mkQAvRUVMQ2Z8BWmhS1n4oayOtgcXmcLlhsWCPN4Ut916JfvHw1KwEiEqgGv+B4ofGWy9DkS78sspy61Gw1Xio+tkiwJz7lw/mbSvsq/v/xe2/QqO566DqpwuhUDvfQV8ac8kBP0KjLRdJ9+hT91yzHHFUVwlH9LVwUMBqd7whiOx+oBQO3UeXVnjYFGST7VdcoF5uxBpAg6BI5xlQIGY8FO40HUr0jYfyn64DbGuLQEW8ExzewWMUrcaYBLDStUB0nKuSYPWvfoBnZqx27dxbbtkJ/9y3L/fIANMKsRUvduTDxjyWFZtcYF9rzFIoP3QuFG4/UZNBKD3b2xVjQ9BYJC9RcHgmALJ4n7r8hQPRfXimxca+CcCCkwLXpxVO60Lr4uqciMaWNzCNpPfQeKz8zRbAapSks3QL/mAR2Vc+QBH9JCwUAHjCKrKNJFD6FShaG1qbQPBA3R9TAHfPkQT6rrFGx0G5EWvJUxQRxqxzc+tl8JewYBk91DcKWFKgqEVkpwKhZOgeBFbEA/7xQAuRQds0J7yY5N99vK0DHgmUHb4yIowA3PGX/2w9nfNHBPC7eDWrZQIU9w2F6FdhpQDWaBZEdseb0qD3Aq+IiaZEU2880O+EEy477wP+92cOwHsZOUFxd9f/KSNo9Rv89TCglwK7TlIaaETJSHaLJGfjsIIYPdw/Cgiis7M3pUTvRZQgBgUwiAeCzwNvpTjh5l0X9uf+D22BjunO4KypjUG9pccAo+n9BW2/fx8dB5jLX2tOIkQduhWc+UbOTjoC5+/s7h/60K91QQGr6JhOyj74yp5oTDT25IFVv9/LBX73F4du3As6IDT8+QxUGr0ZCqls9ew34L8V68oIKT10GdSckQBNf70a9Dl60pv+DowMWkTnJF2AFw3Cfwq8cgL+ZhHZARKOwAgH0ZHoqIYHrCKD3x+6/t3BH1+jWfBGSpC8AB67YmwtjMcDlcdsfdBi2IeSvHLGAZ7plxzwA1QZux3qLUkHbCilhjb0HV3L0N46KfBX/5GH7qAbCjRNuVVaEFkWCZ6uBY+Upwd4RTK/ovuf99/wzODEAijRDEG6/soMqDH1gMtDgM2Givee7yowVKDNpNyjAwR3PLvH6oPFes2D0kOWQoUvfoaqsbugzsJkaLjpPFiO3CGeNRDPYuB48+RbpXQDXDSQwFEg6girLYjsqpKCoM/JSCAe8J8HBp3M4eE/TL1wl8DTQOBpAJn5U7CzeoFDHLqT7ihgScx5XhCZwwDMSsqTlKeueSD2nEf0n4c58PMfwY8DIDn335AzCQ2dFnv233UHWDSgwFPAYmftqVwwKQaTKLawGQk//eY9AFCyA47evh+2sdHak/y78cB9i93ZJfBIQ3fULQWwtKMbA5Aiot008UCAeeDITb4BgOmBJIMExOHmAYvIPtMtUNHAgkQBgMetNrYg3MxHzycFaFQekMsAkDwAeH09RJkARqUxzctP/WFjPz4G8HiQUIZuq2cKNE6A/xJE51YSIj+FKMA7R1qPyF+PfyQzd5yXfT0gSFUBiYcin4eCvoZ2x05MEdczRtHYgkyBxglQSBBZctCZjUCS3L0m4gEEdjX/fXc2PKmAJO/mNhAsIktpkQRFggwvdPtIoECULbuyIDovkVIwt1Kg9Q/c+q//g3/+LxkHW65RJgDxXeD4Tg0trSK7KCRmV4oEbKIxhogC2PRBENmfahiIvhNagSV6Rxa9exx3gkwBQAn3c6/YIujjMBUEIr6KLL4K0HpdwyZxIYIVekwkUUBIzLEIIrsZIEYjl7eJXN7EMw/ApH2aEy6wB53/clFe4cXtewCfZtFRAPFQ0A2S21Z7zrORhEk01hBTAItBCCLLJmEMujCSgWQQA+mfyQx6HXfClAt3AcHc1//2Xr/n8ga8ejQ0PQJIxk0l43esYvYLIYYTelwkUsAiOl6maoGmUg5kjKgwRl5OZtDvhBPGns2BhZfvwp7r9+A8uw/a9vvqzAOsEZB+5z5su3YP5ly66/IQYAvhFnbiSzJcNPOA0yI6XotELKIxh4kCVpHFCCLLIWHTLGwEpirANFL4Cnf3iy7fhctqD/XV4bvP37p1F1xGQfdj5CWIFB4K8zjvCnbWLkwwQo+NZApYbc6ugsjuhZmBCVANBKiRxEtt05y6AX5Pi+HufYBvzlDcQCTxUxjGet9qd/aKZAyisYeZAhab490wMC6BPoF+WHngWTuDLEcwnPueUO773+iUwJbDJJ/kpfPCA/cFm/OdMMMHPd4IFLDYHIO9MBgpHgJpw/JAuzSn78gcwl9+TtkDhuVBP3XucCNgD81BJxQQRDbKT4YkQSWDIWJ44Hk7Azxv1/N/9+4DdE4nDwDpJQ8PiI19qRPYoGEYiQKCyIaTsHkIG4F6xIC6Vt796nROUCL8A2FU5NwHVzaC1jnR9w0vv2OMhDk0F51RQLCxD0mJGF6JGBbUtfIu1vRPvR2cVD9fDAHHPYDN1+5BB9r5E496bD6ora/OwNKow7GKzn6UHUBGgFYwjeTvv5HihI8yc2Dqhbvw8x/3IOX2fcBc/UD+hzWEDt64B0uu3IW5l+7C5PN3Xbt8rBI45GQO9D3hBOwyGMl0pLEHZf3uW+yOQUbFG5qXDilgtbGOVCcgKMJMCt5jZ6Nn0Hg9xQkDM3Jg0vm7cPyO71kDaFC0SqXzfD2vtU7HdlcQnd11CBE0JKNTwCqyNoLInDoVDALSCAJSo/AQ5ubf0VgOOPHmPcCgQ6PQgOYRsrVkgp21MjrO0Px0TAHB5nhVENkdEvqQCT0Bhc4Nm0EncwAj9NX8h8cIr1Htf+Jp7TztEGzsTR1DAw3NLBSwJOY8L4jsBhkBZAQQDzzgATzHV/Pfqt/vEfhpBz9T08wisltRiY6XzIIvNM8IoIBgczYVRPYHAQAZAcQDDN45oa6Q0IhMKudL/KJJZ1yz2HKECIAEGqLZKNAiydlYEJ2XSKA1CbSpdzNG5RV066v5rwul8xH/q/SAWEV20SI6G5oNV2i+EUSB5+zZVQQ7SzWqYqd5kXGjlgeuK5wCYJjAi0lET7X0NPn3jgqJ2ZUiCApoqGalQIskKCKIzu0mF1ja2ajc2RiVT5Jv8SMBf3PeJx4xOY+o433ntpY2KGxWPKF5RyAF6qTAX602tkAdg9MuiOhkPB5Y9wc/HzDxJhkAxPeKfD8PdWkEQgAN2fQUAHhcsLEvBZHdJ0FXFHTaDRpsNzj5Av8MAA0EkguSCxkeuI+68zGAx02PI0SAyKaA1ebsKoiMyTA6KUGDAR+t8wNQG3YqhxsHOO3CXeJ94n1vPMAE0dk5srU+jZ4o4EYBwZ79oiCyawQOtOMxCw+0TeNnAlAKIMmCF1m42sKW3dJNddJLooAxKPBsIqsjiCzTC9N7s4LpPdodRTQPtLAzbsOgdmlU+590wSMjyCKyU1FHWG1jaHuaBVHACwWaptwqLYhsPwn+I8EnWhiXFutlAgHPOCgAkPg+D9/vFew3S3pRmfQWUcBYFGi5A/6fILIxpADyKICI3u3SWnpfy5hUJ9z2kgww+gxVACSekXjGMYMi/Y2FcTQbFRQQRNZJENltUgSSIqCrEXlh6MmcXCMAKwMsvkLBf0ZcZx/mlG0RnT1UqEr6ClHAmBQQbM4GePblg/DQjpliBCKGB95MccKXp3OgA5X+jZg1C6pOsrPT2D/FmFqdZkUU0ECBZgehmCCyX4IqcASWpHiJB4gHdMADFhvbYEmBohpUJH2VKGBwCmDRIJENF0R2jwwBOgogHiAeMCAPYEG0MY8BPGFwbU7TIwr4RgGL6HiN6gWQ8jeg8qfdtw5232Hkq+sWkUX7phXpV0QBE1Gguc1RQxBZchiFlZS1uZU1rT+tfyB5II3y+00EYDRV/ynQMgWeFEQ2h4wA8gYQDxAPRCwP2B0zn7bD//mvEekORAETUsAqshjBxn6PWAVAO6lA7qToXsRPkcID1wQ7a2dClU1TJgoElgJYPdAqso1kBNBOkHiAeED/PODcahHvlAusFqS7EQXMTAGAxy12xyBBZA79KwBS0rRGxAMm5AHnwxa+FOVvZqyiuQePAoKd1RNElmRC5RIprk8aJ7npzccDdpZqEZ0Ng6f56M5EAaKAiwKWffA/guicIIgM82rNp2xozrTmxAN64oF4CvQjcCIKhJgCFtHxslVkF8kIICOIeIB4IPQ84LjSwu54PcRqjx5HFCAKSBR4NuF2GcHG1oRe+EnhEs2JB0zMAyuaJ98qJekhuhIFiAJhpIDFxloLouM3EyskPblEaSzkojckD7g8jnbWKoyqjh5NFCAKeKOAYL9ZUhBZPBkBtDMlHiAeCDAPYLxRPDXx8aZ56T2igI4oINhZK4oNIAAIMAAYckdLNFIlJ+lCUs5zOlJxNBSiAFGAR4HGCVDoYabAXVJyqpQcARy57YkH8vJADnbva5kJ/83TNfQZUYAooFMKRNmdjSw2lkBGABkBxAPEAxp4ILFFkrOxTtUaDYsoQBRQS4HGCfBfgsiGCyK7rUEB0G4o726I6EH0MDwPWER2y2JzDG69DP6iVr/Q94gCRIEIoADW56YgQdoFkhFIPOCFB+5b7WyZkJhdKQJUGQ2RKEAU8JUCVjH7BUFkyV6UgOF3ODRnAj/iAQ8esLPDUbYcq6/6hH5HFCAKRBgFWu6A//ewudCfpBA9FCK5uskQNAcPnLfYnH0eA6DmPRGmv2m4RIGAUACreQmiY4YgMsoWMIfSJ3Cndc4W7Gw01e8PiAqlmxAFIp8CliRWy3UGSMqRAJJ4wMg8sO45e3aVyNdYNAOiAFEg4BSISnS8JIhMpGMBOhYgHjAUDyRSMZ+Aq0u6IVHAeBTAFCBBdHYXRJZFIGAoEDDyzpbm5sVzYxHZKYvd2YXO+Y2np2lGRIGgUqBOCvwVg4SorDAZAWQIRhoPuBqDDacqfkFVkXRzooDxKYDBQg8LCV0jIIg0IKDxmoxnb2D53uYHoKDxNRPNkChAFAgZBazpUIAMAQJUkwFqpBwtuIC/RRIUCZlCoAcRBYgC5qOAmyFwlcCADALigbDyAAG/+VQwzZgoEH4KtLRBYcHOvhBE9geBQFhBIFJ2qTROL4F6PsmOjf1uEdln2PUz/JqARkAUIAqYlgIYaISRxoLI0n1SZoFSinQfAliD84ArINfGviTgN626pYkTBXRKAYAnWtgdrwsi20uGAHkEiAcCygMnsHT3KyfgbzqVfhoWUYAoQBR4QAGrmNNCENkqQWT3CAgCCgS0yzf4Lj+vvDi3o1H9GMDjpFuIAkQBokBEUaBFkqOqIDonCCK7nVexESgSPYgHZHiAYVnuFnZn84gSdhosUYAoQBTwRoFnE6GEVWSfC6LzsozSo52tqXa2BP755cB5SbCxL7FBlzcZoveIAkQBokBEU+BBdUHW2mp3bhFEdj+/EiRgIJqYiwcsNpaAFTct++B/Ilq4afBEAaIAUUAtBax2x1NYtUywsd8J9MwFerTe7E9sw21JYvXVygt9jyhAFCAKGI4CrlLDNmc3QXT8Sl4BMgQMbBzcF+yOnZgy2zgB/tdwgkwTIgoQBYgC/lDgueQ7FbDcMHYxMzAQULyDueIdzqGny3LEUd0f2aDfEgWIAkQBc1AA4AmL6HhZENkii8hukTFAnoEI4wEs0RtvtTn+Qa14zaGyaJZEAaJAECiAlQYxFxpTowSRsQgDAtrtm2e3fxeDW9HF3zIFngyCKNAtiQJEAaKAeSnQ7CAUs4jOvoLo3CaI7C4ZA+QZCDMP5LgyWmzO3pYUKGpeyaSZEwWIAkSBEFIAFe7DHgTryDNAhkAIDYG7VtGxB0vzUs5+CAWeHkUUIAoQBbxRwNWZUHR2FkS2QhAZnr+S651oEEgeuP7wCKoTNeLxJoH0HlGAKEAU0AEFWi+DvzzsRTBGsLNUMgbIGPKRB05irj7Gn2ABKx2wNg2BKEAUIAoQBbRQwJLEallsjsGCnf1MGQVkDHCMgZuCyNaja7+F6Kiphcfou0QBogBRgCigcwrgTq6FLbulxca+EezsMAUSmtogwCDSQ4KdjbYk5jxPu3ydCy8NjyhAFCAKBJICmK4Vleh4CZuwPOxPQGmGxo0duIt197E7pcXGWlPUfiAlie5FFCAKEAUinAJoEAii459WkY0URLZJELFmu6l3yYEMpAv1va4JIvsFjTs08rDkdISzJw2fKEAUIAoQBUJGAYAnnk1kdQTR2R0DwgSRiYLInGQU6M4owjWxWUXHdMHm7BZ1hNV+DODxkPEJPYgoQBQgChAFjE+BxgnwX1aR1X1Qg8A5AXPCBZFhAFmod7hmfd7NB658Fo8Be5jxQa10jS93NEOiAFGAKKBbClgTb5dFVzOCEnoLHhoGVJPAd8PIYRFZiiv/3sa+xHN7NLyotr5uRYAGRhQgChAFiAK5FAB4HDscWsXsF6x2Zy/sCvewWJGNCha5PCbX0XUv2Nhyq8i+RRphlkZz+53y5MLP5SJ6QRQgChAFiAJGo0CLJChiSWL1LaLjNcHu7C/Y2NfYRU4QnVsFkSULovOSILJ7EXi8cO/h2HEOOJd4nJtVdPbDueKcsXqj0daT5kMUIAoQBYgCRIGAUQArGzZNuVUaQVOwZ78o2Fkr3Clb7I4PMIfdKjonY9tkq8hWPkhldOx+eEaeJojspGBjvwsiu+r2744XgwLfe/SdB785KYgs7cG9HL/ivfEZD57lnOzKn7c7PrDanT0FO3sbx4ZjxLGSmz5gy083IgoEjQL/H0TOfE0zrUYEAAAAAElFTkSuQmCC;" parent="tuaRVUBW0FNEikcSwHjQ-5" vertex="1">
                    <mxGeometry x="20" width="110" height="110" as="geometry"/>
                </mxCell>
                <mxCell id="tuaRVUBW0FNEikcSwHjQ-3" value="" style="endArrow=none;html=1;rounded=0;strokeColor=#00FFFF;strokeWidth=2;" parent="tuaRVUBW0FNEikcSwHjQ-5" edge="1">
                    <mxGeometry width="50" height="50" relative="1" as="geometry">
                        <mxPoint y="110" as="sourcePoint"/>
                        <mxPoint x="30" y="20" as="targetPoint"/>
                    </mxGeometry>
                </mxCell>
                <mxCell id="tuaRVUBW0FNEikcSwHjQ-4" value="" style="endArrow=none;html=1;rounded=0;strokeColor=#00FFFF;strokeWidth=2;" parent="tuaRVUBW0FNEikcSwHjQ-5" edge="1">
                    <mxGeometry width="50" height="50" relative="1" as="geometry">
                        <mxPoint x="90" y="110" as="sourcePoint"/>
                        <mxPoint y="110" as="targetPoint"/>
                    </mxGeometry>
                </mxCell>
                <mxCell id="tuaRVUBW0FNEikcSwHjQ-6" value="Mixed community" style="text;html=1;align=center;verticalAlign=middle;resizable=0;points=[];autosize=1;strokeColor=none;fillColor=none;" parent="tuaRVUBW0FNEikcSwHjQ-9" vertex="1">
                    <mxGeometry y="98" width="120" height="30" as="geometry"/>
                </mxCell>
                <mxCell id="tuaRVUBW0FNEikcSwHjQ-15" value="" style="group" parent="1" vertex="1" connectable="0">
                    <mxGeometry x="-491" y="136" width="110" height="110" as="geometry"/>
                </mxCell>
                <mxCell id="tuaRVUBW0FNEikcSwHjQ-10" value="" style="ellipse;whiteSpace=wrap;html=1;aspect=fixed;strokeWidth=3;strokeColor=#00994D;fillColor=none;" parent="tuaRVUBW0FNEikcSwHjQ-15" vertex="1">
                    <mxGeometry x="20" width="50" height="50" as="geometry"/>
                </mxCell>
                <mxCell id="tuaRVUBW0FNEikcSwHjQ-12" value="" style="ellipse;whiteSpace=wrap;html=1;aspect=fixed;strokeWidth=3;strokeColor=#000099;fillColor=none;" parent="tuaRVUBW0FNEikcSwHjQ-15" vertex="1">
                    <mxGeometry y="50" width="60" height="60" as="geometry"/>
                </mxCell>
                <mxCell id="tuaRVUBW0FNEikcSwHjQ-13" value="" style="ellipse;whiteSpace=wrap;html=1;aspect=fixed;strokeWidth=3;strokeColor=#CCFFE6;fillColor=none;" parent="tuaRVUBW0FNEikcSwHjQ-15" vertex="1">
                    <mxGeometry x="30" y="30" width="50" height="50" as="geometry"/>
                </mxCell>
                <mxCell id="tuaRVUBW0FNEikcSwHjQ-14" value="" style="ellipse;whiteSpace=wrap;html=1;aspect=fixed;strokeWidth=3;strokeColor=#660033;fillColor=none;" parent="tuaRVUBW0FNEikcSwHjQ-15" vertex="1">
                    <mxGeometry x="60" y="50" width="50" height="50" as="geometry"/>
                </mxCell>
                <mxCell id="tuaRVUBW0FNEikcSwHjQ-16" style="edgeStyle=orthogonalEdgeStyle;rounded=0;orthogonalLoop=1;jettySize=auto;html=1;entryX=0;entryY=0;entryDx=0;entryDy=0;strokeWidth=3;" parent="1" source="tuaRVUBW0FNEikcSwHjQ-2" target="tuaRVUBW0FNEikcSwHjQ-12" edge="1">
                    <mxGeometry relative="1" as="geometry"/>
                </mxCell>
                <mxCell id="tuaRVUBW0FNEikcSwHjQ-17" value="&lt;font style=&quot;font-size: 15px;&quot;&gt;Extract DNA&lt;/font&gt;" style="edgeLabel;html=1;align=center;verticalAlign=middle;resizable=0;points=[];" parent="tuaRVUBW0FNEikcSwHjQ-16" vertex="1" connectable="0">
                    <mxGeometry x="-0.0165" y="2" relative="1" as="geometry">
                        <mxPoint as="offset"/>
                    </mxGeometry>
                </mxCell>
                <mxCell id="tuaRVUBW0FNEikcSwHjQ-27" value="" style="group;strokeColor=none;" parent="1" vertex="1" connectable="0">
                    <mxGeometry x="-203" y="159" width="155" height="80" as="geometry"/>
                </mxCell>
                <mxCell id="tuaRVUBW0FNEikcSwHjQ-20" value="" style="endArrow=none;html=1;rounded=0;strokeWidth=7;strokeColor=#828282;" parent="tuaRVUBW0FNEikcSwHjQ-27" edge="1">
                    <mxGeometry width="50" height="50" relative="1" as="geometry">
                        <mxPoint x="20" y="20" as="sourcePoint"/>
                        <mxPoint x="90" y="20" as="targetPoint"/>
                    </mxGeometry>
                </mxCell>
                <mxCell id="tuaRVUBW0FNEikcSwHjQ-21" value="" style="endArrow=none;html=1;rounded=0;strokeWidth=7;strokeColor=#828282;" parent="tuaRVUBW0FNEikcSwHjQ-27" edge="1">
                    <mxGeometry width="50" height="50" relative="1" as="geometry">
                        <mxPoint y="43.5" as="sourcePoint"/>
                        <mxPoint x="70" y="43.5" as="targetPoint"/>
                    </mxGeometry>
                </mxCell>
                <mxCell id="tuaRVUBW0FNEikcSwHjQ-22" value="" style="endArrow=none;html=1;rounded=0;strokeWidth=7;strokeColor=#828282;" parent="tuaRVUBW0FNEikcSwHjQ-27" edge="1">
                    <mxGeometry width="50" height="50" relative="1" as="geometry">
                        <mxPoint x="70" as="sourcePoint"/>
                        <mxPoint x="140" as="targetPoint"/>
                    </mxGeometry>
                </mxCell>
                <mxCell id="tuaRVUBW0FNEikcSwHjQ-24" value="" style="endArrow=none;html=1;rounded=0;strokeWidth=7;strokeColor=#828282;" parent="tuaRVUBW0FNEikcSwHjQ-27" edge="1">
                    <mxGeometry width="50" height="50" relative="1" as="geometry">
                        <mxPoint x="50" y="70" as="sourcePoint"/>
                        <mxPoint x="120" y="70" as="targetPoint"/>
                    </mxGeometry>
                </mxCell>
                <mxCell id="tuaRVUBW0FNEikcSwHjQ-25" value="" style="endArrow=none;html=1;rounded=0;strokeWidth=7;strokeColor=#828282;" parent="tuaRVUBW0FNEikcSwHjQ-27" edge="1">
                    <mxGeometry width="50" height="50" relative="1" as="geometry">
                        <mxPoint x="70" y="30.5" as="sourcePoint"/>
                        <mxPoint x="140" y="30.5" as="targetPoint"/>
                    </mxGeometry>
                </mxCell>
                <mxCell id="tuaRVUBW0FNEikcSwHjQ-26" value="" style="endArrow=none;html=1;rounded=0;strokeWidth=7;strokeColor=#828282;" parent="tuaRVUBW0FNEikcSwHjQ-27" edge="1">
                    <mxGeometry width="50" height="50" relative="1" as="geometry">
                        <mxPoint y="10" as="sourcePoint"/>
                        <mxPoint x="70" y="10" as="targetPoint"/>
                    </mxGeometry>
                </mxCell>
                <mxCell id="tuaRVUBW0FNEikcSwHjQ-35" value="" style="rounded=0;whiteSpace=wrap;html=1;strokeColor=none;fillColor=none;" parent="tuaRVUBW0FNEikcSwHjQ-27" vertex="1">
                    <mxGeometry y="-10" width="140" height="90" as="geometry"/>
                </mxCell>
                <mxCell id="tuaRVUBW0FNEikcSwHjQ-39" value="Reads" style="text;html=1;align=center;verticalAlign=middle;resizable=0;points=[];autosize=1;strokeColor=none;fillColor=none;" parent="tuaRVUBW0FNEikcSwHjQ-27" vertex="1">
                    <mxGeometry x="33" y="-30" width="60" height="30" as="geometry"/>
                </mxCell>
                <mxCell id="tuaRVUBW0FNEikcSwHjQ-36" style="edgeStyle=orthogonalEdgeStyle;rounded=0;orthogonalLoop=1;jettySize=auto;html=1;exitX=1;exitY=0;exitDx=0;exitDy=0;strokeWidth=3;" parent="1" source="tuaRVUBW0FNEikcSwHjQ-14" target="tuaRVUBW0FNEikcSwHjQ-35" edge="1">
                    <mxGeometry relative="1" as="geometry"/>
                </mxCell>
                <mxCell id="tuaRVUBW0FNEikcSwHjQ-37" value="Shotgun &lt;br&gt;metagenomic&lt;br&gt;sequencing" style="edgeLabel;html=1;align=center;verticalAlign=middle;resizable=0;points=[];fontSize=15;" parent="tuaRVUBW0FNEikcSwHjQ-36" vertex="1" connectable="0">
                    <mxGeometry x="-0.0833" y="1" relative="1" as="geometry">
                        <mxPoint as="offset"/>
                    </mxGeometry>
                </mxCell>
                <mxCell id="mwHiF5HPtgdSUanDn1l9-3" style="edgeStyle=elbowEdgeStyle;rounded=0;orthogonalLoop=1;jettySize=auto;html=1;exitX=0.5;exitY=1;exitDx=0;exitDy=0;elbow=vertical;strokeWidth=3;entryX=0.5;entryY=0;entryDx=0;entryDy=0;" parent="1" source="tuaRVUBW0FNEikcSwHjQ-35" target="mwHiF5HPtgdSUanDn1l9-15" edge="1">
                    <mxGeometry relative="1" as="geometry">
                        <mxPoint x="-490" y="360" as="targetPoint"/>
                        <mxPoint x="-123" y="239" as="sourcePoint"/>
                        <Array as="points"/>
                    </mxGeometry>
                </mxCell>
                <mxCell id="mwHiF5HPtgdSUanDn1l9-24" value="&lt;font style=&quot;font-size: 15px;&quot;&gt;assembly path&lt;/font&gt;" style="edgeLabel;html=1;align=center;verticalAlign=middle;resizable=0;points=[];" parent="mwHiF5HPtgdSUanDn1l9-3" vertex="1" connectable="0">
                    <mxGeometry x="-0.3438" y="1" relative="1" as="geometry">
                        <mxPoint x="-62" y="-1" as="offset"/>
                    </mxGeometry>
                </mxCell>
                <mxCell id="mwHiF5HPtgdSUanDn1l9-15" value="&lt;font style=&quot;font-size: 18px;&quot;&gt;Assembly&lt;br&gt;&lt;/font&gt;" style="rounded=1;whiteSpace=wrap;html=1;" parent="1" vertex="1">
                    <mxGeometry x="-600" y="340" width="150" height="40" as="geometry"/>
                </mxCell>
                <mxCell id="mwHiF5HPtgdSUanDn1l9-113" style="rounded=0;orthogonalLoop=1;jettySize=auto;elbow=vertical;html=1;labelBackgroundColor=default;strokeColor=default;strokeWidth=3;align=center;verticalAlign=middle;fontFamily=Helvetica;fontSize=11;fontColor=default;endArrow=classic;" parent="1" source="mwHiF5HPtgdSUanDn1l9-25" target="mwHiF5HPtgdSUanDn1l9-88" edge="1">
                    <mxGeometry relative="1" as="geometry"/>
                </mxCell>
                <mxCell id="mwHiF5HPtgdSUanDn1l9-25" value="&lt;font style=&quot;font-size: 18px;&quot;&gt;read-based analysis&lt;br&gt;&lt;/font&gt;" style="rounded=1;whiteSpace=wrap;html=1;" parent="1" vertex="1">
                    <mxGeometry x="136" y="360" width="200" height="40" as="geometry"/>
                </mxCell>
                <mxCell id="mwHiF5HPtgdSUanDn1l9-16" style="edgeStyle=elbowEdgeStyle;rounded=0;orthogonalLoop=1;jettySize=auto;html=1;elbow=vertical;strokeWidth=3;" parent="1" source="tuaRVUBW0FNEikcSwHjQ-35" target="mwHiF5HPtgdSUanDn1l9-25" edge="1">
                    <mxGeometry relative="1" as="geometry">
                        <mxPoint x="130" y="340" as="targetPoint"/>
                        <Array as="points">
                            <mxPoint x="-30" y="290"/>
                        </Array>
                    </mxGeometry>
                </mxCell>
                <mxCell id="mwHiF5HPtgdSUanDn1l9-23" value="&lt;font style=&quot;font-size: 15px;&quot;&gt;no-assemby path&lt;/font&gt;" style="edgeLabel;html=1;align=center;verticalAlign=middle;resizable=0;points=[];" parent="mwHiF5HPtgdSUanDn1l9-16" vertex="1" connectable="0">
                    <mxGeometry x="-0.2967" y="2" relative="1" as="geometry">
                        <mxPoint x="46" y="2" as="offset"/>
                    </mxGeometry>
                </mxCell>
                <mxCell id="mwHiF5HPtgdSUanDn1l9-87" value="" style="shape=table;startSize=0;container=1;collapsible=0;childLayout=tableLayout;" parent="1" vertex="1">
                    <mxGeometry x="111" y="439" width="250" height="101" as="geometry"/>
                </mxCell>
                <mxCell id="mwHiF5HPtgdSUanDn1l9-88" value="" style="shape=tableRow;horizontal=0;startSize=0;swimlaneHead=0;swimlaneBody=0;strokeColor=inherit;top=0;left=0;bottom=0;right=0;collapsible=0;dropTarget=0;fillColor=none;points=[[0,0.5],[1,0.5]];portConstraint=eastwest;" parent="mwHiF5HPtgdSUanDn1l9-87" vertex="1">
                    <mxGeometry width="250" height="20" as="geometry"/>
                </mxCell>
                <mxCell id="mwHiF5HPtgdSUanDn1l9-89" value="" style="shape=partialRectangle;html=1;whiteSpace=wrap;connectable=0;strokeColor=inherit;overflow=hidden;fillColor=none;top=0;left=0;bottom=0;right=0;pointerEvents=1;" parent="mwHiF5HPtgdSUanDn1l9-88" vertex="1">
                    <mxGeometry width="63" height="20" as="geometry">
                        <mxRectangle width="63" height="20" as="alternateBounds"/>
                    </mxGeometry>
                </mxCell>
                <mxCell id="mwHiF5HPtgdSUanDn1l9-90" value="sample_A" style="shape=partialRectangle;html=1;whiteSpace=wrap;connectable=0;strokeColor=inherit;overflow=hidden;fillColor=none;top=0;left=0;bottom=0;right=0;pointerEvents=1;" parent="mwHiF5HPtgdSUanDn1l9-88" vertex="1">
                    <mxGeometry x="63" width="62" height="20" as="geometry">
                        <mxRectangle width="62" height="20" as="alternateBounds"/>
                    </mxGeometry>
                </mxCell>
                <mxCell id="mwHiF5HPtgdSUanDn1l9-91" value="sample_B" style="shape=partialRectangle;html=1;whiteSpace=wrap;connectable=0;strokeColor=inherit;overflow=hidden;fillColor=none;top=0;left=0;bottom=0;right=0;pointerEvents=1;" parent="mwHiF5HPtgdSUanDn1l9-88" vertex="1">
                    <mxGeometry x="125" width="63" height="20" as="geometry">
                        <mxRectangle width="63" height="20" as="alternateBounds"/>
                    </mxGeometry>
                </mxCell>
                <mxCell id="mwHiF5HPtgdSUanDn1l9-92" value="..." style="shape=partialRectangle;html=1;whiteSpace=wrap;connectable=0;strokeColor=inherit;overflow=hidden;fillColor=none;top=0;left=0;bottom=0;right=0;pointerEvents=1;" parent="mwHiF5HPtgdSUanDn1l9-88" vertex="1">
                    <mxGeometry x="188" width="62" height="20" as="geometry">
                        <mxRectangle width="62" height="20" as="alternateBounds"/>
                    </mxGeometry>
                </mxCell>
                <mxCell id="mwHiF5HPtgdSUanDn1l9-93" value="" style="shape=tableRow;horizontal=0;startSize=0;swimlaneHead=0;swimlaneBody=0;strokeColor=inherit;top=0;left=0;bottom=0;right=0;collapsible=0;dropTarget=0;fillColor=none;points=[[0,0.5],[1,0.5]];portConstraint=eastwest;" parent="mwHiF5HPtgdSUanDn1l9-87" vertex="1">
                    <mxGeometry y="20" width="250" height="20" as="geometry"/>
                </mxCell>
                <mxCell id="mwHiF5HPtgdSUanDn1l9-94" value="obj_1&lt;br&gt;" style="shape=partialRectangle;html=1;whiteSpace=wrap;connectable=0;strokeColor=inherit;overflow=hidden;fillColor=none;top=0;left=0;bottom=0;right=0;pointerEvents=1;" parent="mwHiF5HPtgdSUanDn1l9-93" vertex="1">
                    <mxGeometry width="63" height="20" as="geometry">
                        <mxRectangle width="63" height="20" as="alternateBounds"/>
                    </mxGeometry>
                </mxCell>
                <mxCell id="mwHiF5HPtgdSUanDn1l9-95" value="0" style="shape=partialRectangle;html=1;whiteSpace=wrap;connectable=0;strokeColor=inherit;overflow=hidden;fillColor=none;top=0;left=0;bottom=0;right=0;pointerEvents=1;" parent="mwHiF5HPtgdSUanDn1l9-93" vertex="1">
                    <mxGeometry x="63" width="62" height="20" as="geometry">
                        <mxRectangle width="62" height="20" as="alternateBounds"/>
                    </mxGeometry>
                </mxCell>
                <mxCell id="mwHiF5HPtgdSUanDn1l9-96" value="3600" style="shape=partialRectangle;html=1;whiteSpace=wrap;connectable=0;strokeColor=inherit;overflow=hidden;fillColor=none;top=0;left=0;bottom=0;right=0;pointerEvents=1;" parent="mwHiF5HPtgdSUanDn1l9-93" vertex="1">
                    <mxGeometry x="125" width="63" height="20" as="geometry">
                        <mxRectangle width="63" height="20" as="alternateBounds"/>
                    </mxGeometry>
                </mxCell>
                <mxCell id="mwHiF5HPtgdSUanDn1l9-97" value="..." style="shape=partialRectangle;html=1;whiteSpace=wrap;connectable=0;strokeColor=inherit;overflow=hidden;fillColor=none;top=0;left=0;bottom=0;right=0;pointerEvents=1;" parent="mwHiF5HPtgdSUanDn1l9-93" vertex="1">
                    <mxGeometry x="188" width="62" height="20" as="geometry">
                        <mxRectangle width="62" height="20" as="alternateBounds"/>
                    </mxGeometry>
                </mxCell>
                <mxCell id="mwHiF5HPtgdSUanDn1l9-98" value="" style="shape=tableRow;horizontal=0;startSize=0;swimlaneHead=0;swimlaneBody=0;strokeColor=inherit;top=0;left=0;bottom=0;right=0;collapsible=0;dropTarget=0;fillColor=none;points=[[0,0.5],[1,0.5]];portConstraint=eastwest;" parent="mwHiF5HPtgdSUanDn1l9-87" vertex="1">
                    <mxGeometry y="40" width="250" height="21" as="geometry"/>
                </mxCell>
                <mxCell id="mwHiF5HPtgdSUanDn1l9-99" value="obj_2" style="shape=partialRectangle;html=1;whiteSpace=wrap;connectable=0;strokeColor=inherit;overflow=hidden;fillColor=none;top=0;left=0;bottom=0;right=0;pointerEvents=1;" parent="mwHiF5HPtgdSUanDn1l9-98" vertex="1">
                    <mxGeometry width="63" height="21" as="geometry">
                        <mxRectangle width="63" height="21" as="alternateBounds"/>
                    </mxGeometry>
                </mxCell>
                <mxCell id="mwHiF5HPtgdSUanDn1l9-100" value="200" style="shape=partialRectangle;html=1;whiteSpace=wrap;connectable=0;strokeColor=inherit;overflow=hidden;fillColor=none;top=0;left=0;bottom=0;right=0;pointerEvents=1;" parent="mwHiF5HPtgdSUanDn1l9-98" vertex="1">
                    <mxGeometry x="63" width="62" height="21" as="geometry">
                        <mxRectangle width="62" height="21" as="alternateBounds"/>
                    </mxGeometry>
                </mxCell>
                <mxCell id="mwHiF5HPtgdSUanDn1l9-101" value="50" style="shape=partialRectangle;html=1;whiteSpace=wrap;connectable=0;strokeColor=inherit;overflow=hidden;fillColor=none;top=0;left=0;bottom=0;right=0;pointerEvents=1;" parent="mwHiF5HPtgdSUanDn1l9-98" vertex="1">
                    <mxGeometry x="125" width="63" height="21" as="geometry">
                        <mxRectangle width="63" height="21" as="alternateBounds"/>
                    </mxGeometry>
                </mxCell>
                <mxCell id="mwHiF5HPtgdSUanDn1l9-102" value="..." style="shape=partialRectangle;html=1;whiteSpace=wrap;connectable=0;strokeColor=inherit;overflow=hidden;fillColor=none;top=0;left=0;bottom=0;right=0;pointerEvents=1;" parent="mwHiF5HPtgdSUanDn1l9-98" vertex="1">
                    <mxGeometry x="188" width="62" height="21" as="geometry">
                        <mxRectangle width="62" height="21" as="alternateBounds"/>
                    </mxGeometry>
                </mxCell>
                <mxCell id="mwHiF5HPtgdSUanDn1l9-103" value="" style="shape=tableRow;horizontal=0;startSize=0;swimlaneHead=0;swimlaneBody=0;strokeColor=inherit;top=0;left=0;bottom=0;right=0;collapsible=0;dropTarget=0;fillColor=none;points=[[0,0.5],[1,0.5]];portConstraint=eastwest;" parent="mwHiF5HPtgdSUanDn1l9-87" vertex="1">
                    <mxGeometry y="61" width="250" height="20" as="geometry"/>
                </mxCell>
                <mxCell id="mwHiF5HPtgdSUanDn1l9-104" value="obj_3" style="shape=partialRectangle;html=1;whiteSpace=wrap;connectable=0;strokeColor=inherit;overflow=hidden;fillColor=none;top=0;left=0;bottom=0;right=0;pointerEvents=1;" parent="mwHiF5HPtgdSUanDn1l9-103" vertex="1">
                    <mxGeometry width="63" height="20" as="geometry">
                        <mxRectangle width="63" height="20" as="alternateBounds"/>
                    </mxGeometry>
                </mxCell>
                <mxCell id="mwHiF5HPtgdSUanDn1l9-105" value="560" style="shape=partialRectangle;html=1;whiteSpace=wrap;connectable=0;strokeColor=inherit;overflow=hidden;fillColor=none;top=0;left=0;bottom=0;right=0;pointerEvents=1;" parent="mwHiF5HPtgdSUanDn1l9-103" vertex="1">
                    <mxGeometry x="63" width="62" height="20" as="geometry">
                        <mxRectangle width="62" height="20" as="alternateBounds"/>
                    </mxGeometry>
                </mxCell>
                <mxCell id="mwHiF5HPtgdSUanDn1l9-106" value="490" style="shape=partialRectangle;html=1;whiteSpace=wrap;connectable=0;strokeColor=inherit;overflow=hidden;fillColor=none;top=0;left=0;bottom=0;right=0;pointerEvents=1;" parent="mwHiF5HPtgdSUanDn1l9-103" vertex="1">
                    <mxGeometry x="125" width="63" height="20" as="geometry">
                        <mxRectangle width="63" height="20" as="alternateBounds"/>
                    </mxGeometry>
                </mxCell>
                <mxCell id="mwHiF5HPtgdSUanDn1l9-107" value="..." style="shape=partialRectangle;html=1;whiteSpace=wrap;connectable=0;strokeColor=inherit;overflow=hidden;fillColor=none;top=0;left=0;bottom=0;right=0;pointerEvents=1;" parent="mwHiF5HPtgdSUanDn1l9-103" vertex="1">
                    <mxGeometry x="188" width="62" height="20" as="geometry">
                        <mxRectangle width="62" height="20" as="alternateBounds"/>
                    </mxGeometry>
                </mxCell>
                <mxCell id="mwHiF5HPtgdSUanDn1l9-108" value="" style="shape=tableRow;horizontal=0;startSize=0;swimlaneHead=0;swimlaneBody=0;strokeColor=inherit;top=0;left=0;bottom=0;right=0;collapsible=0;dropTarget=0;fillColor=none;points=[[0,0.5],[1,0.5]];portConstraint=eastwest;" parent="mwHiF5HPtgdSUanDn1l9-87" vertex="1">
                    <mxGeometry y="81" width="250" height="20" as="geometry"/>
                </mxCell>
                <mxCell id="mwHiF5HPtgdSUanDn1l9-109" value="..." style="shape=partialRectangle;html=1;whiteSpace=wrap;connectable=0;strokeColor=inherit;overflow=hidden;fillColor=none;top=0;left=0;bottom=0;right=0;pointerEvents=1;" parent="mwHiF5HPtgdSUanDn1l9-108" vertex="1">
                    <mxGeometry width="63" height="20" as="geometry">
                        <mxRectangle width="63" height="20" as="alternateBounds"/>
                    </mxGeometry>
                </mxCell>
                <mxCell id="mwHiF5HPtgdSUanDn1l9-110" value="..." style="shape=partialRectangle;html=1;whiteSpace=wrap;connectable=0;strokeColor=inherit;overflow=hidden;fillColor=none;top=0;left=0;bottom=0;right=0;pointerEvents=1;" parent="mwHiF5HPtgdSUanDn1l9-108" vertex="1">
                    <mxGeometry x="63" width="62" height="20" as="geometry">
                        <mxRectangle width="62" height="20" as="alternateBounds"/>
                    </mxGeometry>
                </mxCell>
                <mxCell id="mwHiF5HPtgdSUanDn1l9-111" value="..." style="shape=partialRectangle;html=1;whiteSpace=wrap;connectable=0;strokeColor=inherit;overflow=hidden;fillColor=none;top=0;left=0;bottom=0;right=0;pointerEvents=1;" parent="mwHiF5HPtgdSUanDn1l9-108" vertex="1">
                    <mxGeometry x="125" width="63" height="20" as="geometry">
                        <mxRectangle width="63" height="20" as="alternateBounds"/>
                    </mxGeometry>
                </mxCell>
                <mxCell id="mwHiF5HPtgdSUanDn1l9-112" value="..." style="shape=partialRectangle;html=1;whiteSpace=wrap;connectable=0;strokeColor=inherit;overflow=hidden;fillColor=none;top=0;left=0;bottom=0;right=0;pointerEvents=1;" parent="mwHiF5HPtgdSUanDn1l9-108" vertex="1">
                    <mxGeometry x="188" width="62" height="20" as="geometry">
                        <mxRectangle width="62" height="20" as="alternateBounds"/>
                    </mxGeometry>
                </mxCell>
                <UserObject label="&lt;font style=&quot;font-size: 15px;&quot;&gt;Megahit&lt;/font&gt;" link="https://github.com/voutcn/megahit" linkTarget="_blank" id="mwHiF5HPtgdSUanDn1l9-114">
                    <mxCell style="text;html=1;align=center;verticalAlign=middle;resizable=0;points=[];autosize=1;strokeColor=none;fillColor=none;fontSize=11;fontFamily=Helvetica;fontColor=default;" parent="1" vertex="1">
                        <mxGeometry x="-440" y="320" width="80" height="30" as="geometry"/>
                    </mxCell>
                </UserObject>
                <UserObject label="&lt;font style=&quot;font-size: 15px;&quot;&gt;metaphlan&lt;/font&gt;" link="https://github.com/biobakery/MetaPhlAn" linkTarget="_blank" id="mwHiF5HPtgdSUanDn1l9-116">
                    <mxCell style="text;html=1;align=center;verticalAlign=middle;resizable=0;points=[];autosize=1;strokeColor=none;fillColor=none;fontSize=11;fontFamily=Helvetica;fontColor=default;" parent="1" vertex="1">
                        <mxGeometry x="340" y="300" width="90" height="30" as="geometry"/>
                    </mxCell>
                </UserObject>
                <UserObject label="&lt;font style=&quot;font-size: 15px;&quot;&gt;kraken&lt;/font&gt;" link="https://github.com/DerrickWood/kraken2" linkTarget="_blank" id="mwHiF5HPtgdSUanDn1l9-117">
                    <mxCell style="text;html=1;align=center;verticalAlign=middle;resizable=0;points=[];autosize=1;strokeColor=none;fillColor=none;fontSize=11;fontFamily=Helvetica;fontColor=default;" parent="1" vertex="1">
                        <mxGeometry x="350" y="320" width="70" height="30" as="geometry"/>
                    </mxCell>
                </UserObject>
                <UserObject label="&lt;font style=&quot;font-size: 15px;&quot;&gt;SPAdes&lt;/font&gt;" link="https://github.com/ablab/spades" linkTarget="_blank" id="2">
                    <mxCell style="text;html=1;align=center;verticalAlign=middle;resizable=0;points=[];autosize=1;strokeColor=none;fillColor=none;fontSize=11;fontFamily=Helvetica;fontColor=default;" vertex="1" parent="1">
                        <mxGeometry x="-440" y="345" width="80" height="30" as="geometry"/>
                    </mxCell>
                </UserObject>
                <UserObject label="&lt;span style=&quot;color: rgb(33, 37, 41); font-family: -apple-system, BlinkMacSystemFont, &amp;quot;Segoe UI&amp;quot;, Roboto, &amp;quot;Helvetica Neue&amp;quot;, Arial, &amp;quot;Noto Sans&amp;quot;, sans-serif, &amp;quot;Apple Color Emoji&amp;quot;, &amp;quot;Segoe UI Emoji&amp;quot;, &amp;quot;Segoe UI Symbol&amp;quot;, &amp;quot;Noto Color Emoji&amp;quot;; text-align: left; background-color: rgb(255, 255, 255);&quot;&gt;&lt;font style=&quot;font-size: 15px;&quot;&gt;Centrifuge&lt;/font&gt;&lt;/span&gt;" link="https://github.com/DaehwanKimLab/centrifuge" linkTarget="_blank" id="3">
                    <mxCell style="text;html=1;align=center;verticalAlign=middle;resizable=0;points=[];autosize=1;strokeColor=none;fillColor=none;fontSize=11;fontFamily=Helvetica;fontColor=default;" vertex="1" parent="1">
                        <mxGeometry x="340" y="345" width="90" height="30" as="geometry"/>
                    </mxCell>
                </UserObject>
                <UserObject label="PanPhlAn" link="https://github.com/SegataLab/panphlan" id="5">
                    <mxCell style="text;html=1;align=center;verticalAlign=middle;resizable=0;points=[];autosize=1;strokeColor=none;fillColor=none;fontSize=15;" vertex="1" parent="1">
                        <mxGeometry x="-500" y="650" width="90" height="30" as="geometry"/>
                    </mxCell>
                </UserObject>
                <UserObject label="StrainPhlAn" link="https://github.com/biobakery/MetaPhlAn" id="6">
                    <mxCell style="text;html=1;align=center;verticalAlign=middle;resizable=0;points=[];autosize=1;strokeColor=none;fillColor=none;fontSize=15;" vertex="1" parent="1">
                        <mxGeometry x="-690" y="580" width="100" height="30" as="geometry"/>
                    </mxCell>
                </UserObject>
                <UserObject label="StrainSifter" link="https://github.com/bhattlab/StrainSifter" id="7">
                    <mxCell style="text;html=1;align=center;verticalAlign=middle;resizable=0;points=[];autosize=1;strokeColor=none;fillColor=none;fontSize=15;" vertex="1" parent="1">
                        <mxGeometry x="-530" y="580" width="100" height="30" as="geometry"/>
                    </mxCell>
                </UserObject>
                <UserObject label="strainest" link="https://github.com/compmetagen/strainest" id="8">
                    <mxCell style="text;html=1;align=center;verticalAlign=middle;resizable=0;points=[];autosize=1;strokeColor=none;fillColor=none;fontSize=15;" vertex="1" parent="1">
                        <mxGeometry x="-300" y="730" width="80" height="30" as="geometry"/>
                    </mxCell>
                </UserObject>
            </root>
        </mxGraphModel>
    </diagram>
</mxfile>